<?xml version="1.0" encoding="UTF-8"?>
<svg id="Layer_1" xmlns="http://www.w3.org/2000/svg" viewBox="0 0 274.24 274.31">
  <defs>
    <style>
      .cls-1 {
        fill: #38393a;
      }

      .cls-2 {
        fill: #66522a;
      }

      .cls-3 {
        fill: #514222;
      }

      .cls-4 {
        fill: #141313;
      }

      .cls-5 {
        fill: #96783a;
      }

      .cls-6 {
        fill: #838481;
      }

      .cls-7 {
        fill: #3e4041;
      }

      .cls-8 {
        fill: #232122;
      }

      .cls-9 {
        fill: #2f3031;
      }

      .cls-10 {
        fill: #353637;
      }

      .cls-11 {
        fill: #3b3a3b;
      }

      .cls-12 {
        fill: #010101;
      }

      .cls-13 {
        fill: #5a5b5e;
      }

      .cls-14 {
        fill: #595a5d;
      }

      .cls-15 {
        fill: #414345;
      }

      .cls-16 {
        fill: #505153;
      }

      .cls-17 {
        fill: #262829;
      }

      .cls-18 {
        fill: #ccd1cd;
      }

      .cls-19 {
        fill: #66532c;
      }

      .cls-20 {
        fill: #d3d7d3;
      }

      .cls-21 {
        fill: #2c2d2f;
      }

      .cls-22 {
        fill: #cbcfcb;
      }

      .cls-23 {
        fill: #5e5e62;
      }

      .cls-24 {
        fill: #4a4b4b;
      }

      .cls-25 {
        fill: #abacac;
      }

      .cls-26 {
        fill: #cea44a;
      }

      .cls-27 {
        fill: #c9ccc8;
      }

      .cls-28 {
        fill: #0c0c0c;
      }

      .cls-29 {
        fill: #b5b7b3;
      }

      .cls-30 {
        fill: #5e5f62;
      }

      .cls-31 {
        fill: #816733;
      }

      .cls-32 {
        fill: #020202;
      }

      .cls-33 {
        fill: #c1c3c0;
      }

      .cls-34 {
        fill: #afb0ad;
      }

      .cls-35 {
        fill: #888885;
      }

      .cls-36 {
        fill: #6a562c;
      }

      .cls-37 {
        fill: #aa873f;
      }

      .cls-38 {
        fill: #504121;
      }

      .cls-39 {
        fill: #a1a29f;
      }

      .cls-40 {
        fill: #57585b;
      }

      .cls-41 {
        fill: #494a4c;
      }

      .cls-42 {
        fill: #9f7f3c;
      }

      .cls-43 {
        fill: #bdbfbc;
      }

      .cls-44 {
        fill: #866b35;
      }

      .cls-45 {
        fill: #a5843e;
      }

      .cls-46 {
        fill: #ba9444;
      }

      .cls-47 {
        fill: #2d2f30;
      }

      .cls-48 {
        fill: #c6c9c6;
      }

      .cls-49 {
        fill: #3b3c3e;
      }

      .cls-50 {
        fill: #372d14;
      }

      .cls-51 {
        fill: #504221;
      }

      .cls-52 {
        fill: #d1d6d1;
      }

      .cls-53 {
        fill: #3c3117;
      }

      .cls-54 {
        fill: #555659;
      }

      .cls-55 {
        fill: #5e4c27;
      }

      .cls-56 {
        fill: #614e28;
      }

      .cls-57 {
        fill: #515255;
      }

      .cls-58 {
        fill: #a4a5a2;
      }

      .cls-59 {
        fill: #545457;
      }

      .cls-60 {
        fill: #cda34a;
      }

      .cls-61 {
        fill: #a2813d;
      }

      .cls-62 {
        fill: #48484a;
      }

      .cls-63 {
        fill: #3e3f41;
      }

      .cls-64 {
        fill: #abada9;
      }

      .cls-65 {
        fill: #715b2e;
      }

      .cls-66 {
        fill: #c79e48;
      }

      .cls-67 {
        fill: #353635;
      }

      .cls-68 {
        fill: #212324;
      }

      .cls-69 {
        fill: #907438;
      }

      .cls-70 {
        fill: #a0a19e;
      }

      .cls-71 {
        fill: #454749;
      }

      .cls-72 {
        fill: #2b2c2d;
      }

      .cls-73 {
        fill: #3f4142;
      }

      .cls-74 {
        fill: #c6cac6;
      }

      .cls-75 {
        fill: #5a4925;
      }

      .cls-76 {
        fill: #caa149;
      }

      .cls-77 {
        fill: #464749;
      }

      .cls-78 {
        fill: #c1c4c1;
      }

      .cls-79 {
        fill: #999a97;
      }

      .cls-80 {
        fill: #554623;
      }

      .cls-81 {
        fill: #635029;
      }

      .cls-82 {
        fill: #66532a;
      }

      .cls-83 {
        fill: #917438;
      }

      .cls-84 {
        fill: #323435;
      }

      .cls-85 {
        fill: #44381b;
      }

      .cls-86 {
        fill: #413519;
      }

      .cls-87 {
        fill: #babcb9;
      }

      .cls-88 {
        fill: #493c1e;
      }

      .cls-89 {
        fill: #404143;
      }

      .cls-90 {
        fill: #a8863f;
      }

      .cls-91 {
        fill: #aaaca8;
      }

      .cls-92 {
        fill: #bf9846;
      }

      .cls-93 {
        fill: #c4c6c3;
      }

      .cls-94 {
        fill: #bec1be;
      }

      .cls-95 {
        fill: #92928f;
      }

      .cls-96 {
        fill: #c39b47;
      }

      .cls-97 {
        fill: #403418;
      }

      .cls-98 {
        fill: #aaaba8;
      }

      .cls-99 {
        fill: #0d0c0c;
      }

      .cls-100 {
        fill: #4e4021;
      }

      .cls-101 {
        fill: #bb9545;
      }

      .cls-102 {
        fill: #92938f;
      }

      .cls-103 {
        fill: #494b4d;
      }

      .cls-104 {
        fill: #d1d5d1;
      }

      .cls-105 {
        fill: #c7cbc7;
      }

      .cls-106 {
        fill: #8a6f36;
      }

      .cls-107 {
        fill: #3d3e40;
      }

      .cls-108 {
        fill: #ced2ce;
      }

      .cls-109 {
        fill: #414244;
      }

      .cls-110 {
        fill: #6b5936;
      }

      .cls-111 {
        fill: #42361a;
      }

      .cls-112 {
        fill: #a0a29e;
      }

      .cls-113 {
        fill: #929390;
      }

      .cls-114 {
        fill: #4d3f20;
      }

      .cls-115 {
        fill: #3b3017;
      }

      .cls-116 {
        fill: #333536;
      }

      .cls-117 {
        fill: #5b5b5e;
      }

      .cls-118 {
        fill: #b6b8b5;
      }

      .cls-119 {
        fill: #5c4b26;
      }

      .cls-120 {
        fill: #bec0bd;
      }

      .cls-121 {
        fill: #4d4e50;
      }

      .cls-122 {
        fill: #97783a;
      }

      .cls-123 {
        fill: #524322;
      }

      .cls-124 {
        fill: #acaeaa;
      }

      .cls-125 {
        fill: #574724;
      }

      .cls-126 {
        fill: #362c14;
      }

      .cls-127 {
        fill: #c7cac7;
      }

      .cls-128 {
        fill: #565759;
      }

      .cls-129 {
        fill: #8b8b88;
      }

      .cls-130 {
        fill: #4b4c4f;
      }

      .cls-131 {
        fill: #b38f43;
      }

      .cls-132 {
        fill: #3a2f15;
      }

      .cls-133 {
        fill: #564624;
      }

      .cls-134 {
        fill: #594825;
      }

      .cls-135 {
        fill: #c9cdc9;
      }

      .cls-136 {
        fill: #3f4042;
      }

      .cls-137 {
        fill: #5d4c26;
      }

      .cls-138 {
        fill: #393b3c;
      }

      .cls-139 {
        fill: #826834;
      }

      .cls-140 {
        fill: #3d3e3f;
      }

      .cls-141 {
        fill: #414243;
      }

      .cls-142 {
        fill: #4e4f51;
      }

      .cls-143 {
        fill: #9a9a97;
      }

      .cls-144 {
        fill: #b7b9b6;
      }

      .cls-145 {
        fill: #434546;
      }

      .cls-146 {
        fill: #414143;
      }

      .cls-147 {
        fill: #272827;
      }

      .cls-148 {
        fill: #040404;
      }

      .cls-149 {
        fill: #3c3d3e;
      }

      .cls-150 {
        fill: #424345;
      }

      .cls-151 {
        fill: #ac8b46;
      }

      .cls-152 {
        fill: #604e28;
      }

      .cls-153 {
        fill: #282a2b;
      }

      .cls-154 {
        fill: #3e3318;
      }

      .cls-155 {
        fill: #a3823d;
      }

      .cls-156 {
        fill: #9ea09c;
      }

      .cls-157 {
        fill: #7a6232;
      }

      .cls-158 {
        fill: #b59144;
      }

      .cls-159 {
        fill: #91928e;
      }

      .cls-160 {
        fill: #58595c;
      }

      .cls-161 {
        fill: #37383a;
      }

      .cls-162 {
        fill: #9d7d3c;
      }

      .cls-163 {
        fill: #a2a3a1;
      }

      .cls-164 {
        fill: #69552b;
      }

      .cls-165 {
        fill: #997a3b;
      }

      .cls-166 {
        fill: #393a3c;
      }

      .cls-167 {
        fill: #5c5d60;
      }

      .cls-168 {
        fill: #544523;
      }

      .cls-169 {
        fill: #0c0c0d;
      }

      .cls-170 {
        fill: #46391c;
      }

      .cls-171 {
        fill: #caceca;
      }

      .cls-172 {
        fill: #f3f3f3;
      }

      .cls-173 {
        fill: #444547;
      }
    </style>
  </defs>
  <path d="M146.58,274.25h-17.58c-5.2-.59-10.4-1.18-15.61-1.77-2.74-.58-5.49-1.17-8.23-1.75-1.07-.16-2.13-.33-3.2-.49-.6-.18-1.21-.36-1.81-.54-.46-.11-.93-.22-1.39-.33-.61-.3-1.22-.6-1.83-.89-.76-.19-1.52-.38-2.28-.57-.76-.29-1.52-.58-2.29-.87-1.81-.67-3.62-1.34-5.43-2.02-11.68-4.86-22.76-10.8-32.78-18.58C25.04,223.83,6.91,194.39,1.64,157.92c-6.42-44.41,5.99-83.44,37-116.05C59.88,19.53,86.12,6.16,116.58,1.61c30.93-4.62,60.23.72,87.65,15.92.59.33,1.21.6,1.82.9,7.19,5.17,14.38,10.34,21.57,15.51,7.83,7.24,15.13,14.97,21.28,23.72,16.61,23.64,25.17,49.86,25.33,78.79.02,2.97-.02,5.94-.03,8.91-.92,10.55-2.55,20.96-5.55,31.14-.81,2.4-1.41,4.89-2.45,7.17-3.81,8.31-7.77,16.56-11.67,24.83-5.41,7.13-10.56,14.48-16.29,21.34-6.36,7.61-14.15,13.76-22.08,19.69-1.97,1.3-3.93,2.6-5.9,3.89-.62.4-1.23.8-1.85,1.19-1.67.96-3.34,1.91-5.01,2.87-5.94,2.74-11.89,5.49-17.83,8.23-1.83.63-3.65,1.26-5.48,1.88-1.07.29-2.13.58-3.2.86-.62.23-1.25.46-1.87.69-4.41,1.01-8.8,2.18-13.25,2.97-5.01.89-10.11,1.44-15.19,2.14ZM140.76,190.24c-.29-.46-.57-.92-.86-1.38-.31-.42-.62-.84-.92-1.26-.47-.62-.94-1.23-1.41-1.85-2.12-3.05-4.24-6.1-6.35-9.15-1.37-1.99-2.74-3.97-4.11-5.96-.61-.9-1.22-1.8-1.83-2.7-.76-1.11-1.52-2.22-2.28-3.32-1.06-1.53-2.13-3.05-3.19-4.58-1.07-1.53-2.13-3.05-3.2-4.58-.43-.72-.86-1.44-1.39-2.33-1.78,2.37-3.36,4.39-4.85,6.48-1.02,1.44-2.24,2.21-4.09,2.36-2.29.18-4.98.17-6.73,1.37-4.15,2.82-7.86,6.29-11.75,9.5-.61.77-1.21,1.54-1.82,2.31-.35.58-.71,1.16-1.06,1.74-.11.17-.21.34-.32.51-.33.6-.67,1.2-1,1.8-.13.29-.27.59-.4.88-.14.32-.29.65-.43.97-.15.31-.3.62-.45.93-.18.42-.35.84-.53,1.26-.13.35-.25.69-.38,1.04-.34.49-.68.97-1.02,1.46-2.9-5.59-6.25-10.99-8.62-16.79-6.67-16.31-8.29-33.4-6.91-50.85,1.48-18.79,7.25-36.13,18.68-51.18,18.05-23.78,42.02-33.24,71.5-27.93,11.89,2.14,22.05,8.26,31.54,15.38,9.86,7.4,19.37,15.26,29.05,22.91,1.43,1.13,2.9,2.2,4.75,3.61-2.02-9.82-3.94-19.04-5.82-28.26-1.86-9.09-3.68-18.19-5.52-27.29-2.34,8.46-8.39,11.04-15.58,10.34-4.69-.46-9.41-1.75-13.86-3.36-5.91-2.13-11.48-5.25-17.39-7.4-13.3-4.85-27.08-4.79-40.77-2.36-36.46,6.48-62.96,26.6-79.29,59.75-10.41,21.13-12.6,43.7-9.42,66.78,3.73,27.07,16.4,49.42,36.99,67.28,7.58,6.57,15.95,11.94,25.35,15.58,1.51.58,3.01,1.16,4.52,1.74,1.25.43,2.5.86,3.75,1.29l.17.1.2-.02c.47.14.95.29,1.42.43.58.16,1.16.33,1.74.49.63.17,1.26.34,1.9.51.48.12.95.23,1.43.35l.15.1.18-.02c.35.15.69.3,1.04.45,0,.17-.03.35-.04.52-4.8,3.04-9.64,6.03-14.36,9.19-.64.43-1.07,1.72-.99,2.56.19,2.17.64,4.29,2.29,6,3.27,3.39,6.35,6.96,9.67,10.3,2.45,2.47,3.83,2.18,5.41-.97.57-1.13,1-2.42,1.09-3.67.21-2.64.18-5.3.19-7.95.02-3.09-.03-6.19-.05-9.28.78,2.69,1.55,5.39,2.45,8.5,6.83,0,13.87.12,20.9-.06,2.51-.07,5.01-.84,7.51-1.32,1.55-.3,3.1-1,4.63-.95,2.58.08,3.18-1.16,2.95-3.34,2.19-.73,2.75-2.3,2.29-4.41.72-1.28,1.43-2.55,2.15-3.83.19-.29.39-.58.58-.88,1.35-.18,2.71-.36,4.06-.53.46-.13.92-.26,1.38-.39.62-.14,1.24-.27,1.86-.41.3-.05.6-.1.9-.15.61-.16,1.22-.31,1.83-.47.76-.25,1.53-.5,2.29-.75l.93-.18c.53,2.35,1.05,4.7,1.65,7.33.6-.85,1.15-1.46,1.51-2.18,1.27-2.55,2.46-5.13,3.69-7.7,1.66-.67,3.32-1.34,4.98-2.01,1.54-.72,3.09-1.45,4.63-2.17,5.78-2.45,11.1-5.66,15.95-9.64,1.67-1.38,3.34-2.76,5.02-4.14.59-.46,1.25-.85,1.75-1.4,2.37-2.65,4.7-5.34,7.04-8.01,1.36-1.69,2.72-3.38,4.08-5.07,2.42-3.38,4.84-6.75,7.27-10.13,1.09-1.82,2.17-3.65,3.26-5.47,1.53-2.44,3.06-4.87,4.58-7.31,1.06-1.37,2.12-2.74,3.18-4.11,3.15-3.84,6.29-7.67,9.44-11.51,1.28-1.18,2.56-2.37,3.83-3.55,1.56-1.05,3.11-2.09,4.67-3.14-.09-.23-.18-.46-.27-.69-1.49.49-2.98.98-4.47,1.47-.76.17-1.52.35-2.28.52-1.07.3-2.13.59-3.2.89-.16.02-.31.04-.47.05-.45.14-.91.29-1.36.43-.45.14-.91.28-1.36.42-.61.16-1.22.32-1.83.48-.92.29-1.83.59-2.75.88-.15,0-.31.02-.46.04-.76.28-1.53.56-2.29.84-.76.32-1.51.63-2.27.95-2.11,1.63-4.21,3.28-6.34,4.88-.39.29-.91.41-1.37.61-.77-2.11-.24-5.07-3.62-5.45-.35-.2-.71-.39-1.06-.59,2.94-1.15,3.71-.81,5.23,2.47,1.8-1.3,3.64-2.49,5.31-3.88,5.89-4.9,9.21-11.16,8.83-18.88-.19-3.98-.92-8.02-2.01-11.85-2.62-9.13-8.74-14.48-18.26-15.87-2.29-.34-4.5-1.2-6.79-1.63-1.46-.28-3.1-.6-4.48-.22-9.95,2.73-19.14,6.83-26,14.99-1.95,2.31-2.93,4.84-2.29,7.78.34,1.58-.24,2.44-1.29,3.48-2.19,2.14-4.96,3.95-5.11,7.51-.2,4.71-.45,9.41-.54,14.12,0,.68.56,1.58,1.14,2.03,4.44,3.45,8.96,6.79,13.43,10.2,4.03,3.08,8.33,3.28,12.92,1.48,2.21-.87,4.48-1.6,6.72-2.4.15.26.29.51.44.77-2.53,1.09-5.18,1.97-7.56,3.32-3.12,1.77-6.26,1.95-9.35.48-2.71-1.29-5.27-2.95-7.78-4.62-1.88-1.25-3.59-2.77-5.37-4.17-.25-.27-.46-.62-.77-.79-4.11-2.39-6.55-5.54-4.87-10.59.04-.13-.02-.3-.03-.45.18-4.96.37-9.93.55-14.89,0-.15,0-.3,0-.46-.18-4.66-3.65-7.65-8.25-6.84-4.64.82-8.83,2.78-12.25,6.07-1.04,1-1.64,2.48-2.43,3.74-.14,1.65-.29,3.29-.43,4.94-.11,1.11-.21,2.22-.32,3.32-.04.61-.08,1.21-.12,1.82-.12.1-.13.21-.03.32-.1,1.72-.21,3.44-.31,5.16-.04.92-.07,1.83-.11,2.75,0,.56,0,1.12-.02,1.68,0,.96,0,1.92.02,2.88v1.83c.13,1.08.26,2.17.39,3.25,1.55,1.38,3.1,2.75,4.65,4.13,1.37.78,2.74,1.56,4.11,2.34.6.32,1.19.64,1.79.97.91.46,1.83.91,2.74,1.37,1.24.54,2.48,1.07,3.71,1.61,1.22.46,2.44.92,3.66,1.38.46.15.91.3,1.37.45.46.15.91.3,1.37.46.46.14.92.29,1.38.43.61.16,1.21.31,1.82.47.3.06.59.12.89.17.61.14,1.22.28,1.84.42,1.53.27,3.06.55,4.59.82,2.13.15,4.27.31,6.4.46,4.49.42,8.71-.73,12.82-2.35,1.28-.51,2.39-1.44,3.58-2.17-.8,2.07-1.84,3.52-4.43,3.89-3.43.5-6.77,1.69-10.14,2.58-1.68.74-3.35,1.48-5.03,2.23-.43.13-.86.26-1.29.39-.23-.29-.44-.82-.7-.85-2.07-.19-4.15-.29-6.23-.42-.61.15-1.22.29-1.83.44-.46.13-.92.26-1.37.4-.61.17-1.22.33-1.82.5-.11-.11-.23-.13-.37-.07.28-.43.56-.86.84-1.29,1.2-.32,2.4-.65,4.01-1.08-2.39-.91-4.33-1.65-6.27-2.39-.61-.14-1.22-.28-1.82-.42-.62-.27-1.24-.53-1.86-.8-.12-.15-.24-.3-.35-.44-.79-.3-1.57-.59-2.36-.89-.77-.3-1.55-.6-2.32-.9-.43-.17-.85-.34-1.28-.51-2.1-.77-4.2-1.53-6.59-2.4,2.63,2.59,5.23,4.65,7.17,7.21,2.03,2.68,3.44,5.85,5.18,8.92.36-.38.66-.69.96-1,.04.4.08.8.13,1.21,0,.86-.02,1.73-.04,2.59-.08,5.98,3.75,9.39,8.14,12.44.93.58,1.85,1.15,2.78,1.73.29.03.58.07.86.1-.32.4-.64.8-.95,1.21-1.04.35-2.07.7-3.11,1.05-1.84-3.1-4.53-5.2-7.63-7-1.79-1.04-3.71-2.45-4.67-4.19-2.71-4.9-5.47-9.89-7.21-15.18-1.47-4.45-4.26-6.86-8.21-8.39-1.63-.63-2.36-1.68-2.9-3.19-2.75-7.7-5.54-15.39-8.4-23.06-.2-.53-1.04-1.15-1.6-1.17-3.87-.1-7.75-.05-11.72-.05v1.6c-1.37.31-2.59.58-4.13.93,3.08,4.72,5.88,9.22,8.9,13.57,6.99,10.09,12.77,20.85,18.01,31.93-.53-.51-1.1-.99-1.59-1.55-1.96-2.25-3.9-4.52-5.85-6.79,0-.11,0-.23,0-.34.06-.21.19-.38.32-.54ZM149.07,159.16c-.75-.21-1.5-.42-2.35-.66.73,1.46,1.4,2.79,2.31,4.61v-3.98c.12-.04.23-.09.35-.13l-.18-.18c-.04.1-.09.22-.13.34ZM143.62,151.36c.22.48.43.96.65,1.45.2.44.41.88.61,1.32.23.63.31,1.43.74,1.86.59.58,1.65,1.37,2.15,1.18.72-.29,1.11-1.39,1.65-2.14v-5.03c.29-2.66.57-5.32.89-8.29-2.42,1.65-4.48,3.21-6.68,4.51-1.63.97-1.88,1.96-.73,3.39.24.59.48,1.17.72,1.75Z"/>
  <path class="cls-25" d="M113.4,272.47c5.2.59,10.4,1.18,15.61,1.77"/>
  <path class="cls-172" d="M98.77,269.36c.46.11.93.22,1.39.33"/>
  <path class="cls-26" d="M95.07,231.94c-9.41-3.63-17.78-9-25.35-15.58-20.59-17.86-33.26-40.21-36.99-67.28-3.18-23.08-1-45.65,9.42-66.78,16.34-33.15,42.83-53.27,79.29-59.75,13.68-2.43,27.46-2.49,40.77,2.36,5.91,2.15,11.47,5.26,17.39,7.4,4.46,1.61,9.17,2.9,13.86,3.36,7.19.7,13.24-1.88,15.58-10.34,1.84,9.1,3.66,18.2,5.52,27.29,1.88,9.23,3.8,18.44,5.82,28.26-1.86-1.41-3.33-2.48-4.75-3.61-9.67-7.65-19.19-15.51-29.05-22.91-9.48-7.12-19.65-13.24-31.54-15.38-29.48-5.31-53.45,4.15-71.5,27.93-11.42,15.05-17.2,32.39-18.68,51.18-1.37,17.45.24,34.55,6.91,50.85,2.37,5.8,5.72,11.21,8.62,16.79,3.23,4.09,6.46,8.18,9.69,12.27.3.3.6.6.9.91l1.38,1.38c.61.61,1.22,1.21,1.84,1.82,1.07.96,2.13,1.92,3.2,2.88-1.45,5.17-2.47,10.39-2.3,15.81.1,3.71,0,7.43-.03,11.14Z"/>
  <path class="cls-20" d="M209.37,169.73c-2.24.8-4.51,1.53-6.72,2.4-4.59,1.8-8.89,1.6-12.92-1.48-4.46-3.42-8.99-6.75-13.43-10.2-.58-.45-1.15-1.35-1.14-2.03.09-4.71.34-9.41.54-14.12.15-3.55,2.92-5.36,5.11-7.51,1.06-1.03,1.64-1.89,1.29-3.48-.63-2.94.35-5.46,2.29-7.78,6.86-8.16,16.05-12.26,26-14.99,1.37-.38,3.01-.05,4.48.22,2.29.43,4.5,1.3,6.79,1.63,9.52,1.39,15.64,6.74,18.26,15.87,1.1,3.84,1.82,7.87,2.01,11.85.38,7.72-2.94,13.98-8.83,18.88-1.67,1.39-3.51,2.58-5.31,3.88-1.52-3.28-2.3-3.62-5.23-2.47-.42,1.41-.84,2.82-1.29,4.31-1.71-1.32-3.74-1.8-5.33.1-.69.82-.55,2.35-.81,3.73-1.52.34-3.64.76-5.76,1.19Z"/>
  <path class="cls-20" d="M153.21,246.9c.22,2.18-.38,3.42-2.95,3.34-1.53-.05-3.08.65-4.63.95-2.5.49-5,1.26-7.51,1.32-7.03.18-14.07.06-20.9.06-.9-3.11-1.67-5.81-2.45-8.5-.11-.43-.21-.86-.32-1.29-.4-1.67-.8-3.34-1.21-5.02-.74-2.28-1.48-4.55-2.23-6.83-.45-1.38-.89-2.75-1.34-4.13-.32-1.06-.64-2.12-.96-3.18-.15-.46-.29-.93-.44-1.39-.31-.91-.62-1.81-.93-2.72-.31-1.08-.61-2.16-.92-3.24-.15-1.86-.3-3.71-.45-5.57.19-2.64.28-5.29.61-7.91.41-3.2.39-6.7,3.11-8.99,2.4-2.02,5.13-3.66,7.71-5.46.53.71,1.12,1.38,1.58,2.13,3.62,5.85,7.22,11.71,10.83,17.56.14,1.1.29,2.2.43,3.3.02.27.04.54.06.81.03.46.05.91.08,1.37-.03.46-.05.91-.08,1.37-.02.29-.03.57-.05.86.08,6-.15,12.03.34,17.99.31,3.82.79,3.78,4.74,3.56h3.2c1.36-.03,2.73-.06,4.09-.09.47,0,.94,0,1.41-.02.6.02,1.21.04,1.81.06,2.46,3.24,4.91,6.45,7.37,9.66Z"/>
  <path class="cls-30" d="M178.31,232.34c-1.22,2.57-2.42,5.15-3.69,7.7-.35.71-.91,1.33-1.51,2.18-.59-2.63-1.12-4.98-1.65-7.33-.02-.57-.04-1.15-.05-1.72-.15-.61-.29-1.22-.44-1.82-.15-.76-.3-1.52-.46-2.28-.15-.61-.3-1.22-.45-1.83-.9-5.62-2.29-7.87-6.43-8.66-1.45-.32-2.94-.52-4.33-1.01-.93-.33-1.92-.9-2.53-1.65-1.06-1.31-1.83-2.84-2.73-4.28-.29-.59-.58-1.18-.87-1.78-.47-1.06-.93-2.13-1.4-3.19-1.32-2.42-2.65-4.84-3.97-7.26-5.24-11.07-11.02-21.84-18.01-31.93-3.01-4.35-5.81-8.86-8.9-13.57,1.54-.35,2.76-.62,4.13-.93v-1.6c3.97,0,7.85-.05,11.72.05.56,0,1.4.63,1.6,1.17,2.86,7.67,5.65,15.36,8.4,23.06.54,1.51,1.27,2.56,2.9,3.19,3.95,1.53,6.74,3.94,8.21,8.39,1.74,5.28,4.5,10.27,7.21,15.18.96,1.74,2.88,3.15,4.67,4.19,3.1,1.8,5.79,3.9,7.63,7,.62,2.72,1.24,5.44,1.86,8.16,0,1.67-.02,3.34-.02,5.02,0,.45-.02.9-.02,1.35-.28,1.4-.58,2.8-.87,4.2Z"/>
  <path class="cls-20" d="M114.45,242.78c.11.43.21.86.32,1.29.02,3.09.06,6.19.05,9.28,0,2.65,0,5.31-.19,7.95-.1,1.25-.53,2.54-1.09,3.67-1.58,3.15-2.97,3.44-5.41.97-3.31-3.35-6.4-6.91-9.67-10.3-1.65-1.71-2.1-3.83-2.29-6-.08-.84.35-2.14.99-2.56,4.73-3.16,9.56-6.15,14.36-9.19.77,1.62,1.54,3.24,2.34,4.84.04.09.38.03.59.05Z"/>
  <path class="cls-20" d="M223.64,161.01c3.38.38,2.85,3.34,3.62,5.45.13.91.25,1.83.38,2.74,0,.76.01,1.52.01,2.28-.17.73-.33,1.47-.5,2.2-.81.91-1.62,1.82-2.43,2.73-4.52,2.33-8.37,5.44-11.24,9.69-.94,1.06-1.87,2.12-2.81,3.18-1.37,1.49-2.74,2.98-4.11,4.48-1.67,1.54-3.34,3.08-5.01,4.61-.28.18-.56.37-.83.55-.55-.34-1.34-.55-1.62-1.05-2.12-3.7-4.14-7.47-6.19-11.21,3.38-.89,6.71-2.08,10.14-2.58,2.59-.38,3.63-1.82,4.43-3.89.17-.16.34-.32.51-.47,1.14-.47,2.32-.84,3.4-1.42,2.03-1.09,3.99-2.33,6-3.46.78-.43,1.64-.72,2.47-1.07,2.22-1.6,1.53-4.28-1.4-5.91-.69-.38-1.7-1.51-1.54-1.88.56-1.37,1.83-1.48,3-.66,1.41.98,2.72,2.09,4.61,3.56-.62-2.16-1.05-3.82-1.59-5.43-.35-1.04-.55-1.92.7-2.44Z"/>
  <path class="cls-30" d="M87.8,172.84c3.89-3.21,7.59-6.69,11.75-9.5,1.76-1.19,4.44-1.18,6.73-1.37,1.86-.15,3.07-.92,4.09-2.36,1.49-2.09,3.07-4.12,4.85-6.48.53.89.96,1.61,1.39,2.33-1.07,4.41-2.15,8.82-3.22,13.23-3.15,1.39-6.49,2.47-9.4,4.25-4.28,2.6-6.98,6.83-9.77,10.89-.53-.6-1.2-1.14-1.58-1.83-1.66-3.03-3.24-6.1-4.84-9.16Z"/>
  <path class="cls-52" d="M174.08,153.67c0,.15.08.32.03.45-1.68,5.05.75,8.2,4.87,10.59.31.18.52.53.77.79-.06.26-.24.58-.15.76,1.6,2.97,3.1,6,4.89,8.85,2.06,3.29,4.39,6.41,6.6,9.6-2.13-.15-4.27-.31-6.4-.46-1.28-1.78-2.72-3.46-3.81-5.35-3.2-5.57-6.27-11.21-9.35-16.84-2.98-5.43-6.87-9.94-12.61-12.59-2.51-1.16-5.1-2.17-7.65-3.25.14-1.65.29-3.29.43-4.94,8.49,1.36,15.55,5.17,20.76,12.13.48.66.9,1.31,1.62.26Z"/>
  <path class="cls-20" d="M191.09,184.72c-2.21-3.19-4.53-6.32-6.6-9.6-1.79-2.85-3.29-5.88-4.89-8.85-.09-.18.09-.5.15-.76,1.78,1.4,3.49,2.92,5.37,4.17,2.51,1.67,5.06,3.33,7.78,4.62,3.09,1.47,6.23,1.29,9.35-.48,2.38-1.35,5.03-2.23,7.56-3.32,2.52-.26,5.06-.78,7.57-.72,2.47.06,2.99,1.54,1.59,3.59-4.71.3-7.97,3.11-10.98,6.35-.17.16-.34.32-.51.47-1.19.74-2.3,1.67-3.58,2.17-4.1,1.63-8.32,2.78-12.81,2.36Z"/>
  <path class="cls-20" d="M174.08,153.67c-.72,1.04-1.14.4-1.62-.25-5.21-6.96-12.27-10.77-20.76-12.13.8-1.26,1.39-2.73,2.43-3.74,3.42-3.29,7.6-5.25,12.25-6.07,4.59-.81,8.06,2.19,8.25,6.84,0,.15,0,.3,0,.46-.19,4.97-.38,9.93-.56,14.89Z"/>
  <path class="cls-108" d="M151.27,146.23c2.55,1.08,5.13,2.09,7.65,3.25,5.74,2.64,9.63,7.15,12.61,12.59,3.08,5.63,6.16,11.27,9.35,16.84,1.08,1.89,2.53,3.57,3.81,5.35-1.53-.27-3.06-.55-4.59-.82-.03-.22,0-.49-.1-.67-3.05-5.4-6.1-10.81-9.19-16.19-2.69-4.67-5.38-9.45-10.1-12.36-3.05-1.88-6.49-3.13-9.76-4.66.1-1.11.21-2.22.32-3.33Z"/>
  <path class="cls-60" d="M95.07,231.94c0-3.71.13-7.43.02-11.14-.16-5.42.86-10.64,2.3-15.81,1.37,1.03,2.74,2.05,4.11,3.08-.12.89-.27,1.79-.37,2.68-.49,4.58-1.15,9.15-1.38,13.74-.14,2.77.43,5.56.61,8.35.02.26-.51.55-.78.83-1.49-.57-3-1.15-4.51-1.73Z"/>
  <path class="cls-88" d="M244.55,157.77c.45-.14.91-.28,1.36-.42-2.06,3.68-3.95,7.46-6.23,10.99-2.05,3.17-4.67,5.96-6.79,9.08-7.35,10.8-16.34,20.09-26.04,28.74-1.56,1.39-3.24,2.81-5.11,3.66-3.71,1.67-7.2,1.29-9.78-2.31,0-.14,0-.27-.06-.4.38-.28.76-.55,1.13-.83.14-.12.27-.24.41-.36.41-.37.83-.74,1.24-1.1.16-.03.32-.05.48-.08.47,2.38,1.95,3.55,4.33,2.93,1.63-.42,3.25-1.27,4.6-2.29,2.77-2.09,5.51-4.27,8-6.69,4.55-4.44,9.12-8.89,13.28-13.68,4.21-4.84,8.01-10.06,11.88-15.19,1.8-2.39,3.36-4.98,5.02-7.47.76-1.53,1.52-3.05,2.28-4.58Z"/>
  <path class="cls-7" d="M147.82,199.41c1.32,2.42,2.65,4.84,3.97,7.26-1.09-.3-2.19-.6-3.29-.9-.26,1.16-.84,2.23-.63,3.1.35,1.39-1.31,3.14.71,4.2-1.15,2.15,1.52,6,4.11,5.94.77-.33,1.54-.65,2.32-.98.16.76.32,1.53.49,2.29-1.24.18-2.48.35-3.71.53-3.12-1.88-4.82-4.7-5.5-8.21-.04-.18-.29-.32-.44-.48.35-3.35-.35-6.3-3.2-8.45-2.49-1.88-5.16-2.71-8.23-1.6h-.44c-.15-.46-.3-.91-.46-1.37,2.21-.41,4.4-1.05,6.62-1.17,2-.11,2.57-1.05,2.19-2.69-.33-1.41-.66-3.22-1.65-3.96-1.1-.82-.26-1.24-.29-1.83,1.95,2.27,3.89,4.54,5.85,6.79.48.54,1.05,1.02,1.58,1.53Z"/>
  <path class="cls-114" d="M191.96,207.5c2.59,3.61,6.07,3.99,9.78,2.31,1.88-.84,3.55-2.27,5.11-3.66,9.7-8.65,18.69-17.94,26.04-28.74,2.12-3.12,4.74-5.91,6.79-9.08,2.28-3.53,4.17-7.32,6.23-10.99.45-.14.91-.29,1.36-.43-1.22,2.5-2.14,5.21-3.72,7.47-4.8,6.88-9.85,13.59-14.79,20.37-1.76,2.42-3.5,4.86-5.24,7.3-1.68,1.83-3.35,3.66-5.03,5.48-.78.55-1.66,1.01-2.34,1.68-4.48,4.42-8.94,8.84-14.41,12.13-4.83,2.9-9.64.73-10.66-3.24.07-.14.13-.28.17-.42.25-.06.48-.12.71-.18Z"/>
  <path class="cls-85" d="M244.55,157.77c-.76,1.52-1.52,3.05-2.29,4.57-2.9,3.66-5.85,7.28-8.68,10.99-5,6.56-9.81,13.26-15.93,18.87-2.51,2.31-4.84,4.83-7.5,6.94-3.06,2.43-5.66,5.77-10.1,5.8.12.49.2.79.27,1.09-.21.16-.42.32-.62.47-1.05-1.03-2.11-2.06-3.16-3.08.18-.28.35-.57.53-.85.89-.78,1.78-1.57,2.67-2.35.89.41,1.87,1.27,2.66,1.12,1.43-.26,2.87-.95,4.1-1.77,6.89-4.58,12.96-10.1,18.3-16.4,1.39-1.64,2.51-3.52,3.75-5.29,3.04-3.64,6.22-7.18,9.07-10.97,1.93-2.56,3.41-5.47,5.09-8.23v-.43c.63-.16,1.24-.32,1.84-.48Z"/>
  <path class="cls-52" d="M199.75,200.23c-.89.78-1.78,1.57-2.67,2.35-.56-.35-1.34-.56-1.64-1.06-2.57-4.18-5.05-8.42-7.55-12.64,1.68-.74,3.35-1.48,5.03-2.23,2.05,3.74,4.07,7.5,6.19,11.21.28.5,1.07.71,1.62,1.05-.33.45-.65.88-.98,1.32Z"/>
  <path class="cls-154" d="M242.73,158.25v.43c-.45.45-.98.85-1.35,1.36-1.74,2.38-3.33,4.87-5.17,7.17-2.77,3.47-5.7,6.81-8.56,10.21-.43.41-.93.78-1.29,1.24-4.55,5.87-9.79,10.97-16.33,14.58-.95.53-2.29.36-3.45.52,1.37-1.49,2.74-2.98,4.11-4.48,3.49-.51,6.16-2.61,8.41-5,5.76-6.09,11.35-12.35,16.83-18.68,1.65-1.9,2.72-4.29,4.06-6.46.91-.3,1.82-.59,2.74-.89Z"/>
  <path class="cls-168" d="M218.51,197.53c1.68-1.83,3.35-3.66,5.03-5.48.78-.56,1.74-.97,2.3-1.7,2.76-3.59,5.38-7.28,8.11-10.89,1.81-2.39,3.72-4.71,5.58-7.07.17.16.34.32.51.48-1.06,1.37-2.12,2.74-3.18,4.11-1.7,2.43-3.4,4.86-5.1,7.3-.19.13-.41.22-.55.39-6.75,7.64-13.35,15.42-20.3,22.88-4.1,4.4-9.06,7.76-15.25,8.73-.98-.23-1.96-.62-2.95-.66-2.77-.11-5.32-2.77-5.28-5.68.17-.16.34-.32.52-.48.14.02.28.04.41.07.11.58.06,1.26.36,1.72,2.08,3.17,6.61,5.01,10.07,3.51,3.6-1.57,7.13-3.49,9.67-6.7,1.15-.96,2.42-1.81,3.42-2.9,2.27-2.49,4.42-5.08,6.63-7.63Z"/>
  <path class="cls-76" d="M99.59,233.68c.27-.28.79-.57.78-.83-.18-2.79-.75-5.59-.61-8.35.23-4.59.89-9.16,1.38-13.74.1-.9.24-1.79.37-2.68.61.31,1.22.61,1.83.92.31.29.62.58.93.87-.61,4.84-1.5,9.68-1.74,14.54-.17,3.5.51,7.04.82,10.57-1.26-.45-2.51-.88-3.76-1.3Z"/>
  <path class="cls-118" d="M150.38,159.61c.04-.92.07-1.83.11-2.75,2.33,1.22,4.79,2.25,6.98,3.69,4.05,2.68,6.29,6.87,8.55,11.02,1.73,3.2,3.61,6.31,5.42,9.46-1.22-.46-2.44-.92-3.66-1.38-1.92-3.51-3.66-7.14-5.8-10.52-2.79-4.4-6.29-8.11-11.6-9.52Z"/>
  <path class="cls-89" d="M140.39,191.07c.03.59-.81,1.01.29,1.83.99.74,1.32,2.55,1.65,3.96.38,1.64-.19,2.58-2.19,2.69-2.22.12-4.41.76-6.62,1.17-.16-.45-.32-.91-.48-1.36,1.09-.24,2.18-.46,3.27-.72,2.83-.67,3.73-3.3,1.97-5.53-1.12-1.43-2.2-2.65-3.88-3.72-2.9-1.84-5.54-2.6-8.72-1.43-.6-.59-1.21-1.19-1.81-1.78.19-.23.39-.67.56-.66,2.51.2,5.09.2,7.52.78,2.13.5,4.1,1.67,6.14,2.54.3,0,.6,0,.9-.02.16.16.31.32.47.48l.91.91c0,.17,0,.34.02.51,0,.13,0,.24,0,.35Z"/>
  <path class="cls-134" d="M195.66,216.27c6.19-.97,11.14-4.33,15.25-8.73,6.95-7.46,13.55-15.24,20.3-22.88.14-.16.37-.26.55-.39.17,0,.34,0,.52.02-1.09,1.82-2.17,3.65-3.26,5.47-.35.29-.74.53-1.04.87-3.58,4.01-7.13,8.05-10.73,12.04-4.74,5.27-10.26,9.64-16.1,13.6-1.83.46-3.66.91-5.48,1.37-.89-.14-1.79-.46-2.66-.37-4.5.46-7.53-2.02-7.88-6.56,0-.11.03-.23.04-.34.3,0,.6,0,.91.02.17,4.01,5.2,7.59,9.58,5.88Z"/>
  <path class="cls-22" d="M150.94,149.55c3.27,1.53,6.71,2.78,9.76,4.66,4.72,2.91,7.41,7.69,10.1,12.36,3.09,5.38,6.14,10.78,9.19,16.19.1.18.07.44.1.67-.61-.14-1.22-.28-1.84-.42-2.52-4.49-5.01-9-7.58-13.47-1.7-2.95-3.25-6.04-5.33-8.7-3.71-4.76-8.33-8.38-14.52-9.47.05-.6.09-1.21.12-1.82Z"/>
  <path class="cls-52" d="M153.21,246.9c-2.46-3.21-4.91-6.42-7.37-9.63.91-.31,1.82-.63,2.74-.94.56-.31,1.11-.62,1.67-.94,1.75,2.37,3.5,4.74,5.25,7.1.47,2.11-.1,3.68-2.29,4.41Z"/>
  <path class="cls-91" d="M150.38,159.61c5.31,1.41,8.81,5.12,11.6,9.53,2.13,3.38,3.88,7,5.8,10.52-1.24-.54-2.48-1.07-3.71-1.61-1.1-2.29-2.02-4.69-3.35-6.84-2.28-3.68-5.06-6.92-9.26-8.63-.46-.19-.73-.85-1.09-1.29-.01-.56,0-1.12,0-1.68Z"/>
  <path class="cls-124" d="M186.06,210.39c-.3,0-.6,0-.91-.02-.04-.22-.02-.48-.14-.66-4.08-6.22-8.17-12.43-12.25-18.65.17-.46.35-.91.52-1.37.16-.15.31-.31.47-.46.17.02.35.03.52.05.14-.06.26-.04.37.07.05.22.04.48.16.66,3.93,6.08,7.87,12.16,11.84,18.22.32.48.86.82,1.3,1.22-.17.16-.34.32-.52.48-.45.15-.91.3-1.36.46Z"/>
  <path class="cls-93" d="M175.55,182.37c-.46-.14-.92-.29-1.38-.43-.56-.8-1.18-1.57-1.68-2.41-3.44-5.78-6.57-11.77-10.39-17.29-2.6-3.76-6.56-6.2-11.2-7.21.02-.61.03-1.22.05-1.83,3.2,1.79,6.77,3.13,9.53,5.44,7.49,6.25,10.03,15.81,15.07,23.73Z"/>
  <path class="cls-55" d="M179.24,221.77c-.62-2.72-1.24-5.44-1.86-8.16,1.04-.35,2.07-.7,3.11-1.05,1.75,1.01.52,2.06-.03,2.99-1.11,1.87-.67,3.8,1.32,4.34,1.3.36,2.74.32,4.11.23,1.88-.11,3.81-.22,5.61-.72,3.26-.9,6.44-2.08,9.65-3.14,1.52-.61,3.05-1.22,4.57-1.83-3.2,1.68-6.4,3.35-9.6,5.03-.38,0-.79-.07-1.13.04-3.14,1.03-6.23,2.26-9.42,3.09-1.88.49-3.93.37-5.9.52-.15-.44-.29-.89-.43-1.34Z"/>
  <path class="cls-23" d="M113.39,168.69c1.07-4.41,2.15-8.82,3.22-13.23,1.07,1.53,2.13,3.05,3.2,4.58-.63,3.1-1.25,6.19-1.88,9.29-1.51-.22-3.02-.43-4.54-.64Z"/>
  <path class="cls-144" d="M187.93,209.45c-.44-.4-.99-.74-1.3-1.22-3.97-6.06-7.91-12.14-11.84-18.22-.12-.18-.11-.44-.16-.66.61-.17,1.22-.33,1.82-.5,1.37,1.52,2.74,3.04,4.12,4.56-.03.35-.21.81-.05,1.05,3.07,4.71,6.18,9.4,9.28,14.1l-.52.52c-.31.15-.63.3-.94.45-.13-.04-.27-.07-.41-.08Z"/>
  <path class="cls-119" d="M201.14,216.27c-3.21,1.06-6.39,2.24-9.65,3.14-1.8.5-3.73.6-5.61.72-1.37.08-2.81.12-4.11-.23-1.99-.55-2.43-2.48-1.32-4.34.55-.93,1.78-1.98.03-2.99.32-.4.64-.8.95-1.21.32-.03.64-.07.97-.1.75,1.79,1.5,3.57,2.37,5.64,1.06.36,2.52,1.22,4.02,1.29,2.27.11,4.57-.33,6.86-.54,1.83-.47,3.66-.92,5.49-1.38Z"/>
  <path class="cls-108" d="M187.89,188.89c2.51,4.22,4.99,8.45,7.55,12.64.31.5,1.08.71,1.64,1.06-.18.28-.35.57-.53.85-.46.43-.93.87-1.39,1.3-.16.03-.32.05-.48.08-1.88-2.73-3.88-5.39-5.61-8.22-1.33-2.17-2.33-4.54-3.48-6.82.33-.17.67-.33,1-.5.44-.13.87-.26,1.3-.39Z"/>
  <path class="cls-51" d="M239.53,172.4c-1.86,2.35-3.77,4.67-5.58,7.07-2.73,3.61-5.35,7.3-8.11,10.89-.56.73-1.52,1.14-2.3,1.7,1.75-2.43,3.48-4.88,5.24-7.3,4.94-6.78,9.99-13.48,14.79-20.37,1.57-2.26,2.5-4.97,3.72-7.47.16-.02.31-.04.47-.05-.74,2.18-1.19,4.53-2.29,6.51-1.76,3.13-3.94,6.02-5.94,9.02Z"/>
  <path class="cls-127" d="M175.55,182.37c-5.04-7.92-7.58-17.48-15.07-23.74-2.76-2.31-6.33-3.66-9.53-5.44,0-.3,0-.61,0-.91,5.08.92,9.31,3.56,12.39,7.48,2.93,3.72,5.12,8.02,7.58,12.11,2.19,3.64,4.3,7.32,6.44,10.98-.61-.17-1.21-.32-1.82-.48Z"/>
  <path class="cls-148" d="M218.97,173.37c1.41-2.05.88-3.53-1.59-3.59-2.52-.06-5.05.45-7.57.72-.15-.26-.29-.51-.44-.77,2.12-.43,4.23-.85,5.78-1.16.27-1.38.12-2.9.81-3.73,1.59-1.9,3.62-1.42,5.33-.1.44-1.49.87-2.9,1.29-4.31.35.2.71.39,1.06.59-1.24.52-1.05,1.4-.7,2.43.54,1.62.97,3.27,1.59,5.43-1.89-1.47-3.2-2.58-4.61-3.56-1.17-.82-2.44-.71-3,.66-.15.37.85,1.5,1.54,1.88,2.93,1.62,3.62,4.31,1.4,5.91-.3-.14-.59-.27-.89-.4Z"/>
  <path class="cls-120" d="M150.97,152.28c0,.3,0,.61,0,.91-.02.61-.03,1.22-.05,1.83.4.36.74.89,1.22,1.07,5.5,2.04,9.49,5.85,12.42,10.79,2.85,4.81,5.52,9.73,8.26,14.61-.46-.15-.91-.3-1.37-.45-1.81-3.15-3.69-6.27-5.42-9.46-2.25-4.15-4.49-8.34-8.55-11.02-2.18-1.44-4.64-2.48-6.98-3.69.1-1.72.21-3.44.31-5.16.05.18.11.38.17.57Z"/>
  <path class="cls-162" d="M168.25,235.83c-.61.16-1.22.31-1.83.47-.28-1.08-.34-2.3-.88-3.23-.92-1.58-2.15-2.98-3.25-4.46-1.73-1.85-3.37-3.79-5.21-5.52-1.18-1.1-2.31-.76-3.4.58-1.46,1.79-1.59,3.75-1.44,5.85.15,1.37.3,2.74.46,4.11v.4c-.27.04-.53.08-.8.12-1.28-3.79-1.07-7.58.54-11.17.65-1.46,2.31-1.83,3.88-1.42.81.21,1.55.72,2.32,1.1.91.76,1.83,1.52,2.74,2.29.18.4.29.87.55,1.2,1.85,2.38,3.8,4.68,5.58,7.11.49.68.51,1.7.74,2.57Z"/>
  <path class="cls-53" d="M239.98,159.14c-1.34,2.17-2.42,4.56-4.06,6.46-5.48,6.34-11.07,12.6-16.83,18.68-2.26,2.39-4.92,4.49-8.41,5,.94-1.06,1.87-2.12,2.81-3.18.45-.07,1.02,0,1.32-.25,3.44-2.95,6.84-5.95,10.23-8.95.02-.02-.2-.32-.31-.49.81-.91,1.62-1.82,2.43-2.73.91-.79,1.95-1.47,2.7-2.39,3.27-4,6.46-8.07,9.67-12.12.14-.01.3-.02.45-.03Z"/>
  <path class="cls-167" d="M87.8,172.84c1.61,3.06,3.18,6.13,4.84,9.16.38.69,1.05,1.22,1.58,1.83-.46,1.07-.92,2.13-1.38,3.2-2.29-3.96-4.57-7.91-6.86-11.87.6-.78,1.21-1.55,1.82-2.32Z"/>
  <path class="cls-18" d="M142.9,149.62c-1.15-1.43-.9-2.43.73-3.39,2.2-1.3,4.26-2.86,6.68-4.51-.32,2.97-.61,5.63-.89,8.29-2.17-.14-4.34-.27-6.52-.39Z"/>
  <path class="cls-167" d="M117.93,169.32c.63-3.1,1.25-6.19,1.88-9.29,1.06,1.53,2.13,3.05,3.19,4.58-.45,2.29-.9,4.58-1.35,6.86-1.24-.71-2.48-1.43-3.72-2.15Z"/>
  <path class="cls-39" d="M150.35,161.29c.36.44.63,1.1,1.09,1.29,4.2,1.7,6.98,4.94,9.26,8.63,1.33,2.15,2.25,4.55,3.35,6.84-.91-.46-1.83-.91-2.74-1.37-1.85-5.74-5.55-9.86-10.94-12.51,0-.96,0-1.92-.02-2.88Z"/>
  <path class="cls-135" d="M150.97,152.28c-.06-.19-.11-.38-.17-.58-.1-.12-.08-.23.03-.32,6.19,1.09,10.8,4.71,14.52,9.47,2.08,2.66,3.63,5.75,5.33,8.7,2.57,4.46,5.06,8.98,7.58,13.47-.3-.06-.59-.12-.89-.17-2.14-3.66-4.25-7.34-6.44-10.98-2.46-4.08-4.65-8.38-7.58-12.11-3.08-3.92-7.31-6.56-12.38-7.48Z"/>
  <path class="cls-66" d="M103.34,234.96c-.3-3.52-.99-7.07-.82-10.57.24-4.86,1.13-9.69,1.74-14.54.47.28.93.55,1.4.83-.12.28-.28.55-.36.84-1.77,7.07-1.62,14.21-.8,21.39.08.67-.52,1.42-.8,2.14l-.2.02-.16-.11Z"/>
  <path class="cls-119" d="M205.71,214.44c-1.52.61-3.05,1.22-4.57,1.83,5.85-3.96,11.36-8.33,16.1-13.6,3.6-3.99,7.15-8.03,10.73-12.04.3-.33.69-.58,1.04-.87-2.42,3.38-4.84,6.75-7.27,10.13-.24-.02-.61-.16-.72-.04-4.21,4.24-8.39,8.5-12.58,12.76-.76.61-1.52,1.22-2.29,1.83-.14,0-.29,0-.44,0Z"/>
  <path class="cls-96" d="M103.7,235.05c.28-.72.88-1.47.8-2.14-.83-7.18-.97-14.31.8-21.39.07-.29.24-.56.36-.84h.16s.16.03.16.03c.15,1.86.3,3.71.45,5.57-.27.39-.77.77-.76,1.16.08,5.29.27,10.59.32,15.88,0,.72-.56,1.45-.86,2.17-.48-.15-.95-.3-1.43-.44Z"/>
  <path class="cls-92" d="M105.13,235.48c.3-.72.86-1.45.86-2.17-.05-5.29-.24-10.59-.32-15.88,0-.38.5-.77.76-1.16.31,1.08.61,2.16.92,3.23-.12.42-.36.85-.33,1.27.25,4.43.58,8.86.76,13.3.03.62-.59,1.26-.91,1.89-.58-.15-1.16-.32-1.74-.48Z"/>
  <path class="cls-82" d="M179.19,228.13c0-.45.02-.9.02-1.35,2.14,1.76,4.48,1.3,6.61.24,1.63-.82,2.86-2.45,4.49-3.27,2.91-1.46,5.99-2.57,9-3.83-1.74.95-3.55,1.8-5.2,2.89-2.18,1.43-4.25,3.04-6.34,4.61-.09.07.09.48.15.74-1.54.72-3.09,1.45-4.63,2.17-1.37-.73-2.73-1.46-4.1-2.2Z"/>
  <path class="cls-80" d="M239.53,172.4c2-3,4.19-5.89,5.93-9.02,1.1-1.98,1.55-4.33,2.29-6.51,1.07-.3,2.13-.59,3.2-.89-.49,1.8-.99,3.6-1.48,5.39-3.15,3.84-6.29,7.67-9.44,11.51-.16-.16-.33-.32-.5-.48Z"/>
  <path class="cls-37" d="M162.29,237.25c-1.35.18-2.71.36-4.06.53-.78-1.23-1.55-2.46-2.33-3.69.18-.64.39-1.26.53-1.91.41-1.86,1.43-1.99,2.64-.81,1.64,1.62,3.47,3.2,3.22,5.88Z"/>
  <path class="cls-164" d="M187.91,228.16c-.05-.25-.23-.67-.15-.74,2.09-1.57,4.16-3.18,6.34-4.61,1.65-1.08,3.46-1.93,5.2-2.89.61-.3,1.22-.61,1.83-.91.91-.16,1.82-.33,2.73-.49-4.85,3.98-10.17,7.19-15.95,9.64Z"/>
  <path class="cls-33" d="M172.8,181.48c-2.75-4.87-5.41-9.8-8.26-14.61-2.93-4.94-6.91-8.75-12.42-10.79-.47-.17-.81-.7-1.22-1.07,4.63,1.01,8.6,3.45,11.2,7.21,3.82,5.52,6.95,11.51,10.39,17.29.5.84,1.12,1.61,1.68,2.41-.46-.13-.91-.28-1.37-.44Z"/>
  <path class="cls-159" d="M169.56,193.29c-.3.31-.59.62-.96,1-1.74-3.07-3.15-6.24-5.18-8.92-1.94-2.56-4.54-4.61-7.17-7.21,2.39.87,4.49,1.64,6.59,2.4.06.66-.1,1.45.21,1.95,1.72,2.76,3.53,5.47,5.37,8.15.39.57,1.07.93,1.62,1.39-.15.41-.32.82-.48,1.24Z"/>
  <path class="cls-108" d="M151.9,234.16c.27-.04.53-.08.8-.12.46.02.92.04,1.38.06,1.19,1.52,2.39,3.04,3.58,4.56-.72,1.28-1.43,2.55-2.15,3.83-1.75-2.37-3.5-4.74-5.25-7.1.05-.13.1-.26.16-.39.48-.29.98-.56,1.48-.84Z"/>
  <path class="cls-155" d="M162.29,228.61c1.1,1.48,2.33,2.88,3.25,4.46.54.93.6,2.14.88,3.23-.3.05-.6.1-.9.15-1.95-3.29-3.65-6.81-7.15-8.82-.61-.35-1.47-.46-2.18-.39-2.2.21-1.91,2.3-2.58,3.66.15-1.21.12-2.48.49-3.62.69-2.14,2.59-1.31,4.08-1.4,1.37.9,2.74,1.82,4.11,2.73Z"/>
  <path class="cls-6" d="M177.79,209.53c-4.39-3.05-8.22-6.47-8.14-12.44,1.02,1.27,2.18,2.46,3.04,3.83,1.79,2.81,3.41,5.73,5.1,8.61Z"/>
  <path class="cls-69" d="M171.42,233.18c.02.57.04,1.15.05,1.72l-.93.18c-3.05-3.83-6.11-7.66-9.16-11.49-.39-2.02-1.9-2.73-3.66-3.15-.17-.03-.34-.05-.52-.08.76-.15,1.52-.3,2.28-.46.63.31,1.45.47,1.86.96,1.51,1.86,2.82,3.88,4.34,5.74,1.84,2.25,3.82,4.39,5.74,6.58Z"/>
  <path class="cls-45" d="M153.61,230.89c.66-1.37.37-3.45,2.58-3.66.72-.07,1.57.04,2.18.39,3.5,2.01,5.2,5.53,7.15,8.82-.62.14-1.24.27-1.86.41.11-.35.43-.86.3-1.04-1.41-1.97-2.89-3.89-4.37-5.82-.88-1.14-2.19-1.6-3.25-.75-.71.57-1.14,1.94-1.08,2.91.08,1.48-.72,1.42-1.65,1.47v-2.73Z"/>
  <path class="cls-102" d="M150.76,169.24c-.13-1.08-.26-2.17-.39-3.25,4.4,1.97,7.2,5.45,9.15,9.72-1.37-.78-2.74-1.56-4.11-2.34-.86-2.14-2.29-3.66-4.65-4.13Z"/>
  <path class="cls-132" d="M239.52,159.18c-3.22,4.05-6.4,8.12-9.67,12.12-.75.92-1.79,1.6-2.7,2.39.17-.73.33-1.47.5-2.2,2.46-2.63,4.97-5.2,7.34-7.9.91-1.04,1.51-2.37,2.24-3.56.76-.29,1.53-.57,2.29-.85Z"/>
  <path class="cls-129" d="M177.79,209.53c-1.69-2.88-3.31-5.8-5.09-8.62-.86-1.37-2.02-2.56-3.04-3.83,0-.86.02-1.73.04-2.59.13-.04.26-.08.39-.13,1.94,3.12,3.83,6.28,5.84,9.36,1.47,2.26,3.1,4.41,4.66,6.61v.92c-.94-.57-1.87-1.15-2.8-1.72Z"/>
  <path class="cls-90" d="M153.61,233.63c.94-.05,1.74,0,1.65-1.47-.06-.98.37-2.34,1.08-2.91,1.06-.85,2.37-.39,3.25.75,1.48,1.92,2.95,3.85,4.37,5.82.13.18-.19.69-.3,1.04-.46.13-.92.26-1.38.39.26-2.68-1.57-4.26-3.22-5.87-1.21-1.18-2.24-1.05-2.64.81-.14.64-.35,1.27-.53,1.91-.61,0-1.22,0-1.83,0-.46-.02-.92-.04-1.38-.06v-.4c.32-.02.62-.02.93-.02Z"/>
  <path class="cls-143" d="M159.52,175.71c-1.95-4.27-4.75-7.75-9.15-9.72v-1.83c5.39,2.65,9.09,6.77,10.94,12.51-.59-.31-1.19-.64-1.79-.96Z"/>
  <path class="cls-113" d="M180.57,211.25v-.92c-2.95-4.7-5.92-9.39-8.84-14.12-.53-.86-.82-1.87-1.23-2.82.15-.15.31-.3.46-.45,2.52,3.95,5,7.93,7.58,11.84,1.36,2.07,2.9,4.03,4.36,6.03-.17.15-.33.29-.5.44-.32.03-.64.07-.97.1-.28-.03-.57-.06-.86-.1Z"/>
  <path class="cls-50" d="M237.23,160.02c-.74,1.2-1.33,2.52-2.24,3.56-2.37,2.7-4.88,5.28-7.34,7.9,0-.76-.01-1.52-.01-2.28,2.44-2.74,4.88-5.49,7.33-8.23.74-.32,1.5-.63,2.26-.95Z"/>
  <path class="cls-13" d="M121.64,171.48c.45-2.29.9-4.58,1.35-6.86.76,1.11,1.52,2.22,2.28,3.32-.18,1.96-.35,3.91-.53,5.87-1.03-.78-2.06-1.56-3.1-2.33Z"/>
  <path class="cls-24" d="M90.08,198.01c-3.23-4.09-6.46-8.18-9.69-12.27.34-.49.68-.97,1.02-1.46,2.41,3.7,4.81,7.41,7.28,11.07.2.3.92.24,1.4.35.13,0,.25,0,.38,0-.13.78-.26,1.55-.39,2.32Z"/>
  <path class="cls-79" d="M170.05,192.05c-.55-.46-1.23-.82-1.62-1.39-1.85-2.68-3.65-5.39-5.37-8.15-.31-.5-.15-1.29-.21-1.95.43.17.85.34,1.28.51,1.85,2.99,3.68,6,5.58,8.96.24.37.89.47,1.36.69-.34.44-.68.88-1.02,1.33Z"/>
  <path class="cls-5" d="M161.38,223.58c3.05,3.83,6.11,7.66,9.16,11.49-.76.25-1.53.5-2.29.75-.23-.86-.25-1.88-.74-2.55-1.78-2.43-3.72-4.74-5.58-7.11-.26-.34-.37-.8-.55-1.2v-1.38Z"/>
  <path class="cls-128" d="M83.2,180.09c.13-.29.27-.59.4-.88.33.38.72.72.98,1.14,1.98,3.24,3.92,6.51,5.94,9.73.15.24.88.1,1.34.14-.14.46-.27.91-.41,1.37-.4.1-1.1.38-1.16.27-2.4-3.9-4.74-7.84-7.09-11.77Z"/>
  <path class="cls-117" d="M85.98,175.15c2.29,3.96,4.57,7.91,6.86,11.87-.15.46-.31.91-.46,1.37-.83-1.05-1.77-2.04-2.48-3.17-1.72-2.74-3.33-5.55-4.99-8.33.36-.58.71-1.16,1.07-1.74Z"/>
  <path class="cls-81" d="M206.17,214.44c.76-.61,1.52-1.22,2.29-1.83.68-.45,1.43-.8,2.01-1.36,1.97-1.89,3.87-3.87,5.84-5.77.32-.31.9-.36,1.37-.53-2.34,2.68-4.66,5.37-7.04,8.01-.49.55-1.16.94-1.75,1.4-.91.33-1.81.65-2.72.98v-.9Z"/>
  <path class="cls-14" d="M84.91,176.89c1.66,2.78,3.27,5.59,4.99,8.33.71,1.13,1.64,2.12,2.48,3.17-.14.46-.27.92-.41,1.38-.93-1.15-2.05-2.19-2.76-3.46-1.64-2.91-3.09-5.93-4.61-8.91.1-.16.21-.34.31-.51Z"/>
  <path class="cls-40" d="M84.6,177.41c1.53,2.98,2.97,6,4.61,8.91.72,1.27,1.83,2.32,2.76,3.46,0,.15-.04.3-.11.44-.46-.04-1.19.09-1.34-.14-2.02-3.22-3.96-6.49-5.94-9.73-.26-.42-.65-.76-.98-1.14.33-.6.66-1.2,1-1.8Z"/>
  <path class="cls-142" d="M90.47,195.7c-.13,0-.25,0-.38,0-2.77-4.15-5.53-8.31-8.3-12.46.18-.42.35-.84.53-1.26,2.56,4.05,5.11,8.1,7.7,12.12.05.08.59-.15.91-.23-.16.6-.31,1.21-.46,1.82Z"/>
  <path class="cls-16" d="M131.21,176.59c2.12,3.05,4.24,6.1,6.35,9.15-.28.12-.57.24-.86.36-.64-.49-1.27-.97-1.91-1.46-1.24-1.62-2.48-3.25-3.72-4.87.05-1.06.09-2.12.14-3.18Z"/>
  <path class="cls-160" d="M124.74,173.8c.18-1.96.35-3.91.53-5.87.61.9,1.22,1.8,1.83,2.7.16,1.96.32,3.91.48,5.87-.95-.9-1.89-1.8-2.84-2.7Z"/>
  <path class="cls-105" d="M186.6,189.28c-.33.17-.67.33-1,.5-.48.3-.96.61-1.44.91-.12,0-.25,0-.37,0-.45.3-.9.6-1.35.89-.92-1.19-1.84-2.37-2.76-3.56,2.08.13,4.16.22,6.23.42.24.02.45.55.69.85Z"/>
  <path class="cls-126" d="M234.96,160.97c-2.44,2.74-4.88,5.49-7.33,8.23-.13-.91-.25-1.83-.38-2.74.46-.2.98-.31,1.37-.61,2.13-1.6,4.23-3.25,6.34-4.88Z"/>
  <path class="cls-54" d="M127.58,176.51c-.16-1.96-.32-3.91-.48-5.87,1.37,1.99,2.74,3.97,4.11,5.96-.05,1.06-.09,2.12-.14,3.18-1.16-1.1-2.32-2.19-3.49-3.27Z"/>
  <path class="cls-152" d="M217.67,204.96c-.46.17-1.04.22-1.37.53-1.97,1.89-3.86,3.88-5.84,5.77-.57.55-1.33.91-2.01,1.36,4.19-4.26,8.37-8.52,12.58-12.76.11-.11.47.02.72.04-1.36,1.68-2.72,3.37-4.08,5.06Z"/>
  <path class="cls-57" d="M90.92,193.87c-.31.08-.85.32-.91.23-2.59-4.02-5.14-8.08-7.7-12.12.15-.31.3-.62.45-.93.5,1.01.89,2.09,1.52,3.01,2.18,3.15,4.44,6.24,6.68,9.36,0,.15-.03.3-.04.45Z"/>
  <path class="cls-19" d="M249.47,161.37c.49-1.8.99-3.6,1.48-5.39.76-.17,1.52-.35,2.28-.52.03.79.05,1.58.08,2.36-1.28,1.18-2.56,2.36-3.84,3.55Z"/>
  <path class="cls-112" d="M171.06,190.71c-.46-.22-1.12-.32-1.36-.69-1.91-2.96-3.73-5.96-5.58-8.96.77.3,1.55.6,2.32.9-.12.17-.39.45-.34.51,1.81,2.62,3.64,5.21,5.48,7.81-.17.15-.34.29-.52.43Z"/>
  <path class="cls-101" d="M106.87,235.97c.32-.63.93-1.28.91-1.89-.19-4.44-.52-8.86-.76-13.3-.02-.42.22-.84.33-1.27.31.91.62,1.81.93,2.72-.27.65-.76,1.31-.76,1.96.02,1.81.19,3.62.4,5.42.26,2.24.6,4.47.91,6.7l-.07.16c-.62-.16-1.26-.33-1.89-.5Z"/>
  <path class="cls-59" d="M90.96,193.42c-2.23-3.11-4.5-6.21-6.68-9.36-.63-.91-1.02-2-1.52-3.01.14-.32.29-.65.43-.97,2.35,3.93,4.69,7.87,7.09,11.77.07.11.76-.17,1.16-.27-.15.62-.31,1.23-.48,1.84Z"/>
  <path class="cls-130" d="M81.79,183.24c2.77,4.15,5.53,8.31,8.3,12.46-.48-.11-1.2-.05-1.4-.35-2.47-3.66-4.86-7.37-7.28-11.07.12-.34.25-.69.38-1.04Z"/>
  <path class="cls-58" d="M171.58,190.29c-1.83-2.6-3.67-5.2-5.48-7.81-.04-.06.22-.33.34-.51.79.3,1.57.59,2.36.89-.2.38-.68.95-.56,1.12,1.31,1.96,2.71,3.86,4.09,5.78-.25.18-.5.35-.75.53Z"/>
  <path class="cls-158" d="M108.72,223.63c.32,1.06.64,2.12.96,3.18-.1.64-.32,1.29-.27,1.92.22,2.71.52,5.41.79,8.11-.48-.12-.95-.23-1.43-.35l.07-.16c.07-1.36.21-2.73.19-4.09-.06-2.88-.2-5.75-.31-8.61Z"/>
  <path class="cls-36" d="M179.19,228.13c1.37.73,2.73,1.47,4.09,2.2-1.66.67-3.32,1.34-4.98,2.01.3-1.4.6-2.8.89-4.21Z"/>
  <path class="cls-93" d="M149.42,150.92v4.11c-1.51-.3-3.03-.6-4.54-.9-.2-.44-.41-.88-.61-1.32.96.05,1.97-.09,2.86.18,1.66.51,2.02-.2,1.9-1.62.13-.15.26-.3.39-.45Z"/>
  <path class="cls-74" d="M149.03,151.37c.12,1.42-.24,2.14-1.9,1.62-.89-.27-1.9-.13-2.86-.18-.22-.48-.43-.96-.65-1.45,1.8,0,3.6,0,5.41,0Z"/>
  <path class="cls-78" d="M179.66,188.01c.92,1.19,1.84,2.37,2.76,3.56l-.03.04c-.3.3-.61.6-.91.89h-.46c-1.07-1.35-2.13-2.7-3.2-4.05.62-.14,1.23-.29,1.84-.44Z"/>
  <path class="cls-2" d="M206.17,215.36c.91-.33,1.81-.65,2.72-.98-1.67,1.38-3.35,2.76-5.02,4.14-.91.16-1.82.33-2.73.49,1.67-1.22,3.35-2.43,5.03-3.65Z"/>
  <path class="cls-131" d="M110.19,236.83c-.27-2.7-.57-5.4-.79-8.11-.05-.63.17-1.28.27-1.92.45,1.38.89,2.75,1.34,4.13-.03.94-.03,1.88-.11,2.81-.09,1.06-.26,2.12-.39,3.17l-.18.02-.14-.1Z"/>
  <path class="cls-22" d="M149.03,151.37h-5.41c-.24-.58-.48-1.17-.71-1.75,2.17.13,4.35.26,6.52.39v.92c-.14.14-.27.29-.4.44Z"/>
  <path class="cls-87" d="M172.85,184.52c1.94.74,3.88,1.48,6.27,2.39-1.6.43-2.8.76-4.01,1.08-.75-1.16-1.51-2.31-2.26-3.47Z"/>
  <path class="cls-94" d="M144.88,154.13c1.51.3,3.03.6,4.54.9-.53.75-.93,1.85-1.65,2.14-.5.2-1.57-.6-2.15-1.18-.44-.43-.51-1.22-.74-1.86Z"/>
  <path class="cls-34" d="M173.75,189.23c-.16.15-.31.31-.47.46h-.47c-1.21-2.13-2.43-4.25-3.64-6.38.62.27,1.24.53,1.86.8.9,1.7,1.81,3.41,2.72,5.12Z"/>
  <path class="cls-151" d="M110.52,236.91c.13-1.06.3-2.11.39-3.17.08-.93.08-1.87.11-2.81.74,2.28,1.48,4.55,2.23,6.83-.56-.13-1.13-.26-1.69-.4-.35-.15-.7-.3-1.04-.45Z"/>
  <path class="cls-110" d="M253.31,157.82c-.03-.79-.05-1.57-.08-2.36,1.49-.49,2.98-.98,4.47-1.47.09.23.18.46.27.69-1.55,1.04-3.11,2.09-4.66,3.14Z"/>
  <path class="cls-98" d="M169.16,183.31c1.21,2.13,2.43,4.25,3.64,6.38-.16.02-.32.05-.47.07-1.38-1.92-2.78-3.82-4.09-5.78-.11-.17.36-.74.56-1.12.13.15.25.3.36.45Z"/>
  <path class="cls-27" d="M154.07,234.1c.61,0,1.22,0,1.83,0,.78,1.23,1.55,2.46,2.33,3.69-.19.29-.39.58-.58.88-1.2-1.52-2.39-3.04-3.58-4.56Z"/>
  <path class="cls-29" d="M173.75,189.23c-.91-1.71-1.82-3.42-2.72-5.13.61.14,1.22.28,1.82.42.75,1.16,1.51,2.31,2.26,3.47-.28.43-.56.86-.84,1.29-.18-.02-.35-.03-.52-.05Z"/>
  <path class="cls-133" d="M232.28,184.3c-.17,0-.34,0-.52-.02,1.7-2.43,3.4-4.86,5.1-7.3-1.53,2.44-3.06,4.88-4.58,7.32Z"/>
  <path class="cls-99" d="M111.56,237.37c.56.13,1.13.26,1.69.4.4,1.67.8,3.34,1.2,5.02-.2,0-.55.04-.59-.05-.8-1.6-1.57-3.22-2.34-4.84,0-.19.02-.36.04-.53Z"/>
  <path class="cls-35" d="M150.76,169.24c2.36.46,3.78,1.98,4.65,4.13-1.55-1.37-3.1-2.75-4.65-4.13Z"/>
  <path class="cls-43" d="M177.83,188.45c1.07,1.35,2.13,2.7,3.2,4.05-.15.3-.3.6-.45.91-1.37-1.52-2.74-3.04-4.12-4.56.46-.13.92-.26,1.37-.4Z"/>
  <path class="cls-4" d="M172.33,189.76c.16-.02.32-.05.47-.07h.47c-.17.46-.35.91-.52,1.37-.3.31-.6.61-.91.92-.3.32-.59.64-.89.96-.15.15-.31.3-.46.45-.15.32-.29.65-.44.97-.13.05-.26.09-.39.13-.04-.4-.08-.8-.13-1.21.16-.41.33-.83.49-1.24.34-.44.68-.89,1.01-1.33.17-.14.35-.28.52-.42.28-.18.53-.35.78-.53Z"/>
  <path class="cls-64" d="M149.03,159.12v3.98c-.91-1.81-1.58-3.15-2.31-4.61.85.24,1.6.45,2.35.66l-.04-.03Z"/>
  <path class="cls-62" d="M136.71,186.1c.29-.12.57-.24.86-.36.47.62.94,1.23,1.41,1.85v.85c-.29-.17-.59-.34-.88-.51-.16-.15-.32-.3-.48-.45-.15-.15-.3-.31-.45-.46-.15-.15-.31-.3-.46-.45,0-.16,0-.31,0-.47Z"/>
  <path class="cls-146" d="M138.97,188.44v-.85c.31.42.62.84.92,1.26l-.07.05c-.13.13-.25.26-.38.4h0c-.16-.15-.31-.31-.47-.47,0-.13,0-.26,0-.39Z"/>
  <path class="cls-11" d="M140.36,190.22l-.91-.91h0c.13-.14.25-.27.38-.41l.07-.05c.29.46.57.92.86,1.38-.14,0-.27-.01-.4-.01Z"/>
  <path class="cls-163" d="M149.07,159.16c.04-.12.09-.23.13-.35l.18.18c-.12.04-.23.09-.35.13,0,0,.04.04.04.04Z"/>
  <path class="cls-62" d="M140.36,190.22c.13,0,.27,0,.4,0-.13.17-.26.33-.38.5,0-.17-.02-.34-.02-.51Z"/>
  <path d="M90.96,193.42c.16-.61.32-1.22.48-1.83.14-.46.27-.91.41-1.37.07-.14.1-.29.11-.44.14-.46.27-.92.41-1.38.15-.46.31-.91.46-1.37.46-1.07.92-2.13,1.38-3.2,2.79-4.06,5.49-8.29,9.77-10.89,2.92-1.77,6.25-2.86,9.4-4.25,1.51.21,3.03.42,4.54.63,1.24.72,2.48,1.44,3.71,2.15,1.03.78,2.06,1.55,3.1,2.33.95.9,1.89,1.8,2.84,2.7,1.16,1.09,2.33,2.18,3.49,3.26,1.24,1.62,2.48,3.25,3.72,4.87-.12.02-.25.04-.37.07-1.21-.91-2.42-1.82-3.63-2.73-1.84-1.68-3.67-3.35-5.51-5.03l-.91-.91c-.46-.43-.92-.86-1.39-1.29-.61-.33-1.21-.66-1.82-.99-.92-.28-1.83-.55-2.75-.83-1.07-.15-2.15-.3-3.22-.46-1.86-.04-3.71-.08-5.57-.12-5.45.95-9.13,4.12-11.4,9.07-.9,2-1.8,4-2.7,6.01-.45,1.24-.9,2.47-1.34,3.71-.16.45-.32.9-.48,1.36.02.46.03.92.05,1.39h0c-.31.59-.62,1.18-.94,1.78-.28.78-.56,1.56-.83,2.33-.02.31-.03.61-.05.92-.32,0-.63,0-.95,0-.3-.3-.6-.6-.9-.91.13-.77.26-1.54.39-2.31.15-.61.3-1.22.45-1.83.03-.15.05-.3.06-.45Z"/>
  <path class="cls-10" d="M94.2,202.11c-.61-.61-1.22-1.21-1.84-1.82,3.04-.92,8.38.85,10.07,3.63v-4.57h.4c.02,2.43.04,4.87.06,7.3-.57-.25-1.24-.38-1.68-.78-.88-.8-1.49-1.99-2.48-2.57-1.34-.77-2.59-2.51-4.53-1.19Z"/>
  <path class="cls-1" d="M102.43,199.36v4.57c-1.69-2.78-7.02-4.55-10.07-3.63l-1.38-1.38c.32,0,.63,0,.95,0,2.3-.09,4.6-.28,6.9-.24,1.2.02,2.39.45,3.6.69Z"/>
  <path class="cls-67" d="M94.2,202.11c1.95-1.32,3.2.41,4.54,1.2.99.58,1.6,1.77,2.48,2.57.44.39,1.11.53,1.68.78.15.78.3,1.55.44,2.33-.61-.31-1.22-.61-1.83-.92-1.37-1.03-2.74-2.05-4.11-3.08-1.07-.96-2.14-1.92-3.2-2.88Z"/>
  <path d="M103.33,208.98c-.15-.78-.3-1.55-.44-2.33-.02-2.43-.04-4.87-.06-7.3.45-1.83.91-3.65,1.36-5.48.44-.59.79-1.3,1.35-1.74,2.75-2.18,5.55-4.28,8.33-6.41,1.37-.35,2.74-.69,4.11-1.04,1.96.5,3.92,1.01,5.88,1.51.6.59,1.21,1.19,1.81,1.78l.05.05c-.76-.17-1.51-.34-2.27-.51-2.18-.89-4.19-.61-6.04.84-2.58,1.8-5.31,3.44-7.71,5.46-2.72,2.29-2.7,5.79-3.11,8.99-.33,2.62-.42,5.27-.61,7.91l-.16-.04h-.16c-.47-.27-.93-.54-1.4-.82-.31-.29-.62-.58-.93-.87Z"/>
  <path class="cls-104" d="M117.41,188.35c1.85-1.45,3.87-1.73,6.04-.84,2.13,3.49,4.25,6.99,6.38,10.48,0,3.35,0,6.7-.02,10.06-3.61-5.86-7.2-11.72-10.83-17.56-.45-.76-1.04-1.43-1.57-2.14Z"/>
  <path class="cls-100" d="M135.33,237.32c-3.95.21-4.43.25-4.74-3.56-.49-5.97-.26-11.99-.34-17.99.05.48.09.96.14,1.44v2.97c1.55.27,2.79.48,4.03.69,1.75,4.69.67,9.53.79,14.31.01.71.08,1.42.12,2.14Z"/>
  <path class="cls-137" d="M142.62,237.22c-1.36.03-2.73.06-4.09.09-.31-5.34-.61-10.68-.92-16.02.76,0,1.52-.02,2.28-.03h1.82c.46,0,.92,0,1.38,0h.91c.16.02.32.04.48.06-.84.24-1.67.48-3.1.9.41,4.92.83,9.96,1.24,14.99Z"/>
  <path class="cls-65" d="M142.62,237.22c-.41-5.04-.83-10.07-1.24-14.99,1.42-.41,2.26-.65,3.1-.9h2.29c-1.55.39-1.99,1.37-1.88,2.93.31,4.07.47,8.15.69,12.26-.48.21-1.02.44-1.56.67-.46.02-.93.03-1.4.03Z"/>
  <path class="cls-3" d="M137.61,221.29c.31,5.34.61,10.68.92,16.02h-3.2c-.04-.71-.11-1.43-.13-2.14-.12-4.78.97-9.62-.79-14.31.46,0,.92-.03,1.38-.04.3,0,.6.02.9.02.32.16.62.31.92.45Z"/>
  <path class="cls-139" d="M144.03,237.21c.54-.23,1.07-.46,1.56-.67-.22-4.12-.38-8.2-.69-12.26-.12-1.57.33-2.54,1.88-2.93l-.04-.07c.32.03.63.06.95.09.14.58.39,1.15.42,1.73.18,4.41.33,8.82.48,13.24-.91.31-1.82.63-2.74.94-.61-.03-1.21-.05-1.82-.07Z"/>
  <path class="cls-77" d="M129.82,208.04c0-3.35,0-6.7.02-10.06-.29-2.13-.57-4.26-.86-6.39,1.29,1.27,3.14,2.9,2.2,4.48-.9,1.51-.71,2.78-.81,4.2.27,1.58-1.06,3.64,1.36,4.58v.89c-.44,1.22-.89,2.44-1.33,3.65-.05.65-.1,1.29-.15,1.94-.15-1.09-.29-2.19-.43-3.29Z"/>
  <path class="cls-9" d="M130.24,211.34c.05-.65.1-1.29.14-1.94,1.2-.46,2.39-.93,3.59-1.39.29,1.38.59,2.76.88,4.15h-4.55c-.02-.27-.04-.54-.06-.82Z"/>
  <path class="cls-46" d="M108.72,223.63c.11,2.87.25,5.73.3,8.6.02,1.36-.12,2.73-.19,4.09-.31-2.23-.66-4.46-.91-6.7-.21-1.8-.38-3.61-.4-5.42,0-.65.49-1.31.76-1.96.15.46.3.92.44,1.39Z"/>
  <path class="cls-17" d="M130.39,217.2c-.05-.48-.09-.96-.14-1.44.02-.29.03-.57.05-.86,1.67.3,3.34.61,5.01.91.02.15.03.3.03.45-.07.55-.14,1.1-.15,1.19-1.76-.09-3.28-.17-4.8-.25Z"/>
  <path class="cls-153" d="M135.31,215.81c-1.67-.3-3.34-.61-5.01-.91.03-.46.05-.91.08-1.37,1.09.1,2.2.32,3.27.23.44-.04.82-.76,1.23-1.17.15,1.08.29,2.15.43,3.22Z"/>
  <path class="cls-72" d="M134.88,212.59c-.41.41-.79,1.13-1.23,1.17-1.08.09-2.18-.13-3.27-.23-.03-.46-.05-.91-.08-1.37h4.55c.03.14.04.29.03.43Z"/>
  <path class="cls-109" d="M155.01,218.03c-.77.33-1.54.65-2.32.98-1.77-1.7-3.45-3.47-4.11-5.94.25-.21.71-.42.71-.64.04-3.25.61-3.63,3.89-2.57.29.59.58,1.18.87,1.78.33,2.13.65,4.26.96,6.39Z"/>
  <path class="cls-81" d="M206.17,215.36c-1.68,1.22-3.35,2.44-5.03,3.66-.61.3-1.22.61-1.83.91-3.01,1.26-6.09,2.37-9,3.83-1.63.82-2.86,2.45-4.49,3.27-2.13,1.06-4.47,1.52-6.61-.24,0-1.67.02-3.34.02-5.02.14.45.28.9.43,1.36.28.86.48,2.43.84,2.47,1.88.18,3.9.94,5.6-.87.79-.84,2.02-1.29,3.09-1.83,2.29-1.17,4.61-2.28,6.92-3.42,3.2-1.68,6.4-3.35,9.6-5.03h.46v.91Z"/>
  <path class="cls-32" d="M155.01,218.03c-.32-2.13-.63-4.26-.95-6.39.89,1.44,1.67,2.97,2.73,4.28.61.75,1.6,1.32,2.53,1.65,1.39.49,2.88.68,4.33,1.01-.06.11-.09.23-.1.35-.58.17-1.17.33-1.75.5l-.04-.02c-.76.16-1.52.33-2.28.49-.76.15-1.52.3-2.28.46-.57,0-1.14-.02-1.71-.03-.15-.77-.32-1.53-.48-2.3Z"/>
  <path class="cls-73" d="M153.19,209.86c-3.28-1.07-3.85-.68-3.89,2.57,0,.22-.47.43-.71.64-2.02-1.06-.37-2.8-.71-4.2-.22-.87.36-1.94.63-3.1,1.11.3,2.2.6,3.29.9.46,1.07.92,2.13,1.39,3.19Z"/>
  <path class="cls-157" d="M163.54,218.93c0-.12.05-.24.1-.35,4.13.79,5.53,3.04,6.43,8.66-2.17-2.77-4.35-5.54-6.53-8.31Z"/>
  <path class="cls-106" d="M159.48,219.9c.76-.16,1.52-.33,2.28-.49,3.07,3.98,6.15,7.97,9.22,11.95.15.61.29,1.22.44,1.82-1.92-2.19-3.9-4.33-5.74-6.58-1.52-1.85-2.82-3.88-4.34-5.74-.41-.5-1.23-.65-1.86-.96Z"/>
  <path class="cls-44" d="M170.98,231.35c-3.07-3.98-6.15-7.97-9.22-11.95l.04.02c.73.53,1.6.94,2.17,1.61,2.24,2.63,4.38,5.35,6.56,8.03.15.77.3,1.53.45,2.29Z"/>
  <path class="cls-31" d="M170.52,229.07c-2.18-2.68-4.32-5.4-6.56-8.03-.57-.67-1.44-1.08-2.17-1.61.58-.17,1.17-.33,1.75-.5,2.18,2.77,4.35,5.54,6.53,8.31.16.61.31,1.22.45,1.83Z"/>
  <path class="cls-97" d="M206.57,193.76c1.16-.16,2.5,0,3.45-.52,6.54-3.61,11.79-8.71,16.33-14.58.36-.47.86-.83,1.29-1.24v.91c-3.7,4.08-7.15,8.43-11.18,12.14-3.12,2.88-6.89,5.09-10.55,7.3-1.15.69-2.89.42-4.35.59,1.67-1.52,3.34-3.06,5.01-4.6Z"/>
  <path class="cls-111" d="M201.56,198.37c1.47-.17,3.2.11,4.35-.59,3.66-2.21,7.43-4.43,10.55-7.3,4.03-3.71,7.48-8.06,11.18-12.14.3-.15.61-.3.91-.46-1.24,1.77-2.36,3.65-3.75,5.29-5.34,6.31-11.41,11.82-18.3,16.4-1.23.82-2.67,1.51-4.1,1.77-.79.15-1.77-.71-2.66-1.12.33-.44.65-.87.98-1.31.28-.17.56-.35.84-.54Z"/>
  <path class="cls-115" d="M224.72,176.42c.11.17.33.47.31.49-3.39,3.01-6.79,6-10.23,8.95-.29.25-.87.17-1.32.25,2.87-4.25,6.72-7.36,11.24-9.69Z"/>
  <path class="cls-28" d="M218.97,173.37c.3.13.59.26.89.4-.82.35-1.69.64-2.47,1.07-2.02,1.12-3.97,2.36-6,3.46-1.08.58-2.26.96-3.4,1.42,3.01-3.24,6.27-6.05,10.98-6.35Z"/>
  <path class="cls-170" d="M195.16,204.74c.46-.43.93-.87,1.39-1.3,1.05,1.03,2.11,2.06,3.16,3.08.21-.16.42-.32.62-.47-.08-.3-.15-.59-.27-1.09,4.45-.04,7.04-3.37,10.1-5.8,2.66-2.11,4.99-4.64,7.5-6.94,6.11-5.62,10.93-12.32,15.93-18.87,2.83-3.71,5.78-7.33,8.68-10.99-1.67,2.5-3.22,5.08-5.02,7.47-3.87,5.13-7.66,10.35-11.88,15.19-4.17,4.79-8.73,9.24-13.28,13.68-2.48,2.42-5.22,4.6-8,6.69-1.35,1.02-2.97,1.87-4.6,2.29-2.38.61-3.85-.56-4.33-2.94Z"/>
  <path class="cls-171" d="M184.15,190.69c.48-.3.96-.61,1.44-.91,1.15,2.28,2.15,4.66,3.48,6.82,1.73,2.82,3.73,5.48,5.61,8.22-.41.37-.83.73-1.24,1.1-3.1-5.08-6.19-10.15-9.29-15.23Z"/>
  <path class="cls-48" d="M182.42,191.57c.45-.3.9-.6,1.35-.89.11.66.02,1.45.35,1.97,2.93,4.57,5.93,9.09,8.91,13.63-.38.28-.76.55-1.13.83-1.9-2.8-3.89-5.55-5.67-8.42-1.41-2.28-2.57-4.71-3.83-7.07,0-.01.02-.05.02-.05Z"/>
  <path class="cls-93" d="M182.4,191.61c1.27,2.36,2.42,4.8,3.83,7.07,1.78,2.87,3.77,5.62,5.67,8.42.05.13.07.26.06.4-.23.06-.46.12-.69.18-3.26-5.06-6.52-10.11-9.78-15.17.3-.3.6-.6.91-.9Z"/>
  <path class="cls-135" d="M193.03,206.28c-2.98-4.54-5.98-9.06-8.91-13.63-.33-.52-.25-1.31-.35-1.97.12,0,.25,0,.37,0,3.1,5.08,6.2,10.15,9.3,15.23-.13.12-.27.24-.41.36Z"/>
  <path class="cls-149" d="M133.97,202.1h.44c.46.34,1.2,1.06,1.34.96,1.81-1.31,3.06.15,4.3.91,1.42.88,2.89,1.94,3.82,3.28.98,1.41,1.33,3.25,1.96,4.9.15.16.41.3.44.48.68,3.51,2.38,6.34,5.5,8.21-.31.14-.61.28-.92.42-.76,0-1.52-.02-2.28-.03v-.41c.14-.21.45-.57.41-.61-.6-.65-1.48-1.15-1.84-1.91-1.22-2.53-2.19-5.18-3.39-7.72-.72-1.52-1.33-3.46-2.6-4.26-1.96-1.23-4.44-1.65-6.69-2.41-.15-.59-.32-1.2-.49-1.81Z"/>
  <path class="cls-12" d="M133.97,202.1c.17.61.33,1.22.5,1.83.15.46.29.91.44,1.37.27.92.54,1.84.82,2.76.19,1.06.37,2.12.56,3.19v2.73c.13.61.27,1.22.4,1.83,0,.61.03,1.22.04,1.83,0,1.07-.02,2.13-.03,3.2-.3,0-.6-.02-.9-.02-.16-1.52-.31-3.04-.47-4.56,0-.15,0-.3-.03-.45-.14-1.07-.28-2.15-.43-3.22,0-.15,0-.29-.03-.44-.29-1.38-.59-2.76-.88-4.15-.75-.75-1.5-1.51-2.25-2.26v-.89c-.03-1.68-.07-3.36-.1-5.05.3-.6.6-1.2.9-1.8.17.45.34.9.51,1.35.16.45.32.91.48,1.36.17.48.32.93.47,1.39Z"/>
  <path class="cls-165" d="M150.86,221.27c.31-.14.61-.28.92-.42,1.24-.18,2.48-.35,3.71-.53.57,0,1.14.02,1.71.03.17.03.34.05.52.08.31.75.61,1.49.92,2.24-.77-.38-1.51-.89-2.32-1.1-1.57-.41-3.23-.04-3.88,1.42-1.61,3.6-1.82,7.38-.54,11.17-.5.28-.99.56-1.49.83-.15-2.33-.48-4.67-.4-7,.07-2.25.55-4.48.85-6.72Z"/>
  <path class="cls-140" d="M145.84,212.16c-.63-1.65-.99-3.49-1.96-4.9-.93-1.34-2.4-2.4-3.82-3.28-1.23-.77-2.49-2.22-4.3-.91-.14.1-.88-.62-1.34-.96,3.06-1.11,5.74-.28,8.23,1.6,2.84,2.14,3.54,5.09,3.19,8.45Z"/>
  <path class="cls-73" d="M148.58,213.07c.67,2.47,2.34,4.24,4.11,5.94-2.59.06-5.26-3.79-4.11-5.94Z"/>
  <path class="cls-38" d="M189.29,209.07l.52-.52c.43-.15.86-.31,1.29-.46,1.02,3.97,5.84,6.14,10.66,3.24,5.47-3.29,9.92-7.7,14.41-12.13.67-.67,1.55-1.13,2.34-1.68-2.2,2.54-4.35,5.14-6.63,7.61-1.01,1.09-2.27,1.94-3.42,2.9-.46.23-.94.42-1.37.69-2.02,1.29-3.9,2.89-6.06,3.84-2.53,1.11-5.35,2.55-8.05.51-1.43-1.06-2.48-2.64-3.69-4Z"/>
  <path class="cls-33" d="M191.1,208.1c-.43.15-.86.31-1.29.46-3.1-4.69-6.21-9.38-9.28-14.1-.15-.24.03-.69.05-1.05.15-.3.3-.6.45-.91h.46c3.26,5.06,6.52,10.11,9.78,15.17-.05.15-.1.29-.17.43Z"/>
  <path class="cls-86" d="M228.56,177.88c-.3.15-.61.3-.91.46v-.91c2.86-3.4,5.79-6.74,8.56-10.21,1.84-2.3,3.43-4.79,5.17-7.17.37-.51.9-.91,1.35-1.36-1.68,2.75-3.16,5.66-5.09,8.23-2.86,3.78-6.04,7.32-9.08,10.96Z"/>
  <path class="cls-123" d="M189.29,209.07c1.22,1.35,2.26,2.94,3.69,4.01,2.7,2.04,5.52.6,8.05-.51,2.17-.95,4.04-2.55,6.06-3.84.43-.27.91-.46,1.37-.69-2.54,3.21-6.08,5.14-9.67,6.7-3.46,1.51-7.99-.33-10.07-3.51-.3-.46-.25-1.14-.36-1.72.3-.14.61-.29.93-.44Z"/>
  <path class="cls-125" d="M186.06,210.39c.45-.15.91-.31,1.36-.46-.04,2.91,2.51,5.57,5.28,5.68.99.04,1.97.43,2.95.66-4.37,1.71-9.4-1.87-9.59-5.88Z"/>
  <path class="cls-63" d="M123.86,186.19c-1.96-.5-3.92-1.01-5.88-1.51.86-.91,1.72-1.83,2.67-2.84.53.76.87,1.24,1.21,1.74.78-.46,1.49-.88,2.21-1.3.49.42.95.81,1.44,1.23.59-.29,1.19-.58,1.79-.87l-.09.66c2.4.47,4.8.94,7.2,1.41.12-.03.25-.05.37-.07.64.49,1.27.97,1.91,1.46,0,.15,0,.31,0,.46.16.29.31.59.47.88.14.17.29.33.43.5.16.3.32.6.47.9-2.04-.87-4.01-2.03-6.14-2.54-2.43-.58-5-.58-7.52-.78-.14,0-.35.44-.53.67Z"/>
  <path class="cls-15" d="M133.03,199.36c-.17-.45-.34-.9-.51-1.35.83-.34,1.72-.6,2.49-1.05,1.16-.67,1.51-4.38.47-5.16-2.46-1.86-5.07-3.4-8.36-2.97-.47-.27-.94-.54-1.41-.82,0,0-.05-.06-.05-.05,3.19-1.17,5.82-.41,8.72,1.43,1.68,1.06,2.76,2.28,3.88,3.72,1.76,2.24.85,4.86-1.97,5.53-1.07.26-2.17.49-3.26.72Z"/>
  <path class="cls-8" d="M138.08,188.85c-.16-.3-.32-.6-.47-.9.16,0,.33,0,.49,0,.29.17.59.34.88.51,0,.13,0,.26,0,.39-.31-.01-.61,0-.91,0Z"/>
  <path class="cls-70" d="M171.86,191.98c.3-.31.6-.61.91-.92,4.09,6.21,8.18,12.43,12.25,18.65.11.17.09.44.14.66,0,.11-.02.23-.04.34-.45,0-.89.02-1.34.03-.24-.46-.45-.93-.73-1.36-3.73-5.81-7.46-11.6-11.19-17.4Z"/>
  <path class="cls-75" d="M183.77,210.74c.45,0,.89-.02,1.34-.03.36,4.54,3.38,7.02,7.88,6.56.86-.09,1.77.24,2.66.37-2.29.21-4.59.64-6.86.54-1.5-.07-2.96-.93-4.02-1.29-.87-2.06-1.62-3.85-2.37-5.64.17-.15.33-.29.5-.44.29-.02.58-.04.87-.07Z"/>
  <path class="cls-83" d="M150.86,221.27c-.3,2.24-.79,4.47-.86,6.72-.07,2.33.25,4.67.4,7-.06.13-.11.26-.16.39-.56.31-1.11.62-1.67.94-.15-4.41-.3-8.82-.48-13.24-.02-.58-.27-1.16-.42-1.73.3-.04.6-.07.9-.11.77.02,1.53.02,2.29.03Z"/>
  <path class="cls-56" d="M196.11,219.47c-2.31,1.14-4.63,2.25-6.92,3.42-1.07.55-2.31.99-3.09,1.83-1.7,1.81-3.72,1.06-5.6.87-.36-.04-.56-1.61-.84-2.47,1.97-.15,4.01-.03,5.9-.52,3.19-.83,6.28-2.06,9.42-3.09.35-.11.75-.03,1.13-.04Z"/>
  <path class="cls-42" d="M162.29,228.61c-1.37-.91-2.74-1.83-4.11-2.74-.81-.5-1.6-1.37-2.43-1.4-.86-.03-2.16.05-2.09,1.84.04,1.05-.91,2.14-1.42,3.21-.15-2.1,0-4.07,1.44-5.85,1.09-1.34,2.22-1.68,3.4-.58,1.85,1.73,3.49,3.67,5.21,5.52Z"/>
  <path class="cls-61" d="M152.24,229.52c.51-1.07,1.46-2.16,1.42-3.21-.07-1.79,1.23-1.87,2.09-1.84.82.03,1.62.9,2.43,1.4-1.5.1-3.4-.74-4.08,1.4-.37,1.14-.34,2.41-.49,3.62v2.73c-.3,0-.61,0-.91,0-.16-1.36-.31-2.74-.46-4.11Z"/>
  <path class="cls-122" d="M158.64,222.67c-.31-.75-.61-1.49-.92-2.24,1.76.42,3.27,1.14,3.66,3.15v1.37c-.91-.76-1.83-1.52-2.74-2.28Z"/>
  <path class="cls-95" d="M170.07,194.36c.15-.32.29-.65.44-.97.4.94.7,1.95,1.23,2.82,2.91,4.73,5.88,9.42,8.84,14.12-1.56-2.2-3.19-4.35-4.66-6.61-2.01-3.08-3.9-6.23-5.85-9.36Z"/>
  <path class="cls-156" d="M183.77,210.74c-.29.03-.58.05-.87.08-1.46-2.01-3-3.96-4.36-6.03-2.58-3.91-5.06-7.89-7.58-11.84.3-.32.59-.64.89-.96,3.73,5.8,7.46,11.6,11.19,17.4.28.42.49.89.73,1.35Z"/>
  <path class="cls-169" d="M138.09,187.93c-.16,0-.33,0-.49,0-.14-.17-.29-.33-.43-.5v-.03c.15.04.3.06.44.07.16.15.32.3.48.45Z"/>
  <path d="M137.17,187.45c-.16-.29-.31-.59-.47-.88.15.15.31.3.46.45,0,.13,0,.26.02.4v.03Z"/>
  <path d="M137.18,187.41c0-.13-.02-.26-.02-.4.15.15.3.31.45.46-.14,0-.29-.02-.43-.06Z"/>
  <path class="cls-41" d="M139.83,188.91c-.13.13-.25.26-.38.4.12-.14.25-.27.38-.4Z"/>
  <path class="cls-107" d="M134.43,184.71c-2.4-.47-4.8-.94-7.2-1.41l.09-.66c-.6.29-1.2.58-1.79.87-.49-.42-.95-.81-1.44-1.23-.72.42-1.43.84-2.21,1.3-.35-.5-.68-.98-1.21-1.74-.95,1.01-1.81,1.93-2.67,2.84-1.37.35-2.74.69-4.11,1.04-.75-1.73-2.15-1.09-3.23-.69-3.71,1.36-6.61,3.85-9.08,6.89-1.77,2.18-4.06,3.71-6.62,4.75-.54.22-1.4-.33-2.11-.52,3.59-.41,5.93-2.78,8.33-5.16,2.3-2.28,4.66-4.57,7.28-6.45,3.45-2.49,7.46-3.86,11.78-4.25-.07-.86-.12-1.56-.17-2.26.19.17.37.33.56.5,1.25-.83,2.51-1.66,3.76-2.49l.91.91c-.97,2.79-.7,4.2.93,4.5,1.51.27,3.05.36,4.58.53,1.19.91,2.4,1.82,3.62,2.73Z"/>
  <path class="cls-49" d="M92.83,196.16c.71.19,1.57.74,2.11.52,2.56-1.05,4.85-2.57,6.62-4.75,2.47-3.04,5.37-5.53,9.08-6.89,1.09-.4,2.48-1.04,3.23.69-2.78,2.13-5.59,4.24-8.33,6.41-.56.44-.9,1.16-1.35,1.74-.65.18-1.34.27-1.93.55-1.45.69-2.79,1.68-4.3,2.18-1.93.65-3.99.93-5.99,1.38.28-.78.56-1.56.83-2.33.01.16.02.33.03.5Z"/>
  <path class="cls-63" d="M92.83,196.16c0-.17-.02-.34-.03-.51.31-.59.62-1.19.94-1.78-.09.38-.18.77-.27,1.15.16.13.32.27.47.4,1.87-1.45,3.94-2.71,5.56-4.4,3.25-3.41,6.58-6.65,10.8-8.87,4.05-2.13,8.06-4.33,12.07-6.52.28-.15.41-.58.61-.88.46.43.92.86,1.39,1.29-1.25.83-2.51,1.66-3.76,2.49-.19-.17-.37-.33-.56-.5.05.7.11,1.4.17,2.26-4.33.4-8.33,1.77-11.78,4.25-2.62,1.89-4.97,4.17-7.28,6.45-2.4,2.39-4.73,4.76-8.33,5.17Z"/>
  <path class="cls-71" d="M94.19,191.13c.45-1.24.9-2.47,1.34-3.71.4-.16.9-.23,1.18-.51,2.38-2.32,4.51-4.96,7.13-6.96,3.59-2.75,7.55-5.02,11.35-7.49,1.07.15,2.15.3,3.22.46v.39c-2.01,1.01-4.03,2.01-6.04,3.02-5.7,2.88-10.41,7.02-14.77,11.6-1.06,1.13-2.27,2.14-3.41,3.2Z"/>
  <path class="cls-103" d="M115.2,172.46c-3.8,2.48-7.75,4.75-11.35,7.49-2.62,2-4.75,4.64-7.13,6.96-.29.28-.78.34-1.18.51.9-2,1.8-4,2.7-6.01.25.05.59.22.72.12,4.02-3.04,8.02-6.11,11.88-9.07-.18-.02-.69-.07-1.2-.11,1.84.04,3.7.07,5.56.11Z"/>
  <path class="cls-136" d="M122.99,174.74c-.2.3-.33.73-.61.88-4.01,2.2-8.02,4.4-12.07,6.52-4.22,2.22-7.55,5.46-10.8,8.87-1.62,1.69-3.69,2.95-5.56,4.4-.16-.13-.32-.27-.47-.4.09-.38.18-.77.27-1.15h0c.45-.15.91-.31,1.36-.46,1.35-1.04,3.02-1.83,4.01-3.15,4.74-6.33,11.09-10.32,18.26-13.26.78-.32,1.31-1.23,1.95-1.87.8-.21,2.35.57,1.83-1.39.6.35,1.21.68,1.82,1.01Z"/>
  <path class="cls-145" d="M94.19,191.13c1.14-1.06,2.35-2.07,3.42-3.2,4.37-4.58,9.08-8.72,14.77-11.6,2.01-1.02,4.02-2.01,6.04-3.02.17.27.35.54.52.82-.85.48-1.66,1.08-2.56,1.42-7.03,2.65-12.68,7.16-17.61,12.73-1.44,1.62-3.36,2.82-5.06,4.21.16-.45.32-.9.48-1.36Z"/>
  <path class="cls-150" d="M93.7,192.49c1.7-1.39,3.62-2.59,5.06-4.21,4.94-5.57,10.58-10.09,17.61-12.73.9-.34,1.71-.94,2.56-1.42-.17-.27-.35-.54-.52-.82v-.39c.92.28,1.83.56,2.75.83.52,1.95-1.02,1.18-1.83,1.39-2.39,1.12-4.81,2.17-7.16,3.36-6.95,3.52-12.19,9.01-17.06,14.92-.45.15-.91.31-1.36.46-.02-.46-.03-.93-.05-1.39Z"/>
  <path class="cls-121" d="M109.63,172.35c.51.05,1.02.1,1.2.11-3.86,2.96-7.86,6.03-11.88,9.07-.13.1-.48-.07-.72-.12,2.27-4.94,5.95-8.12,11.4-9.06Z"/>
  <path class="cls-138" d="M91.97,197.99c2-.44,4.05-.73,5.99-1.38,1.51-.5,2.85-1.49,4.3-2.18.6-.29,1.29-.38,1.93-.55-.45,1.83-.91,3.65-1.36,5.48h-.4c-1.2-.24-2.4-.67-3.61-.69-2.3-.04-4.6.14-6.9.24.02-.31.04-.62.05-.92Z"/>
  <path class="cls-149" d="M130.79,181.98c-1.53-.17-3.07-.26-4.58-.53-1.63-.29-1.9-1.71-.93-4.5,1.84,1.68,3.68,3.36,5.51,5.03Z"/>
  <path class="cls-108" d="M125.72,188.02c.47.27.94.54,1.41.82.61.92,1.23,1.84,1.84,2.76.29,2.13.57,4.26.86,6.39-2.13-3.49-4.25-6.99-6.38-10.48.76.17,1.52.34,2.27.51Z"/>
  <path class="cls-68" d="M135.34,216.26c.16,1.52.31,3.04.47,4.56-.46,0-.92.03-1.38.04-1.24-.21-2.49-.43-4.03-.69v-2.97c1.52.08,3.04.16,4.8.25,0-.09.07-.64.14-1.19Z"/>
  <path class="cls-84" d="M136.29,211.25c-.19-1.06-.37-2.12-.56-3.19,1.26.56,3.17.78,3.66,1.73,2.12,4.05,4.45,7.92,7.34,11.47l.04.07h-2.29c-.16-.02-.32-.04-.48-.06-1.54-2.44-2.98-4.95-4.66-7.29-.78-1.08-2.02-1.83-3.05-2.73Z"/>
  <path class="cls-47" d="M136.29,211.25c1.03.9,2.27,1.65,3.05,2.73,1.68,2.34,3.12,4.85,4.66,7.29h-.91c-1.02-1.29-1.96-2.64-3.08-3.84-1.15-1.23-2.47-2.31-3.72-3.45v-2.73Z"/>
  <path class="cls-21" d="M136.29,213.99c1.25,1.14,2.57,2.22,3.72,3.45,1.12,1.2,2.06,2.55,3.08,3.84-.46,0-.92,0-1.38,0-.72-.84-1.42-1.7-2.17-2.51-.93-1-1.9-1.96-2.86-2.94-.12-.62-.26-1.23-.39-1.83Z"/>
  <path class="cls-153" d="M136.69,215.81c.95.98,1.93,1.94,2.86,2.94.75.81,1.45,1.67,2.17,2.51h-1.82c-1.05-1.21-2.1-2.41-3.16-3.62-.02-.6-.04-1.21-.05-1.83Z"/>
  <path class="cls-147" d="M136.73,217.65c1.05,1.21,2.1,2.41,3.16,3.62-.76,0-1.52.02-2.28.03-.3-.15-.61-.3-.91-.45,0-1.07.02-2.13.03-3.2Z"/>
  <path class="cls-161" d="M146.73,221.27c-2.88-3.54-5.22-7.42-7.34-11.47-.5-.96-2.41-1.18-3.66-1.73-.27-.92-.54-1.84-.82-2.76,1.54.67,3.2,1.16,4.59,2.05,2.49,1.6,3.25,4.37,4.34,6.95,1.06,2.49,2.1,5.13,4.73,6.54v.41c-.3.04-.6.07-.9.11-.3-.05-.62-.08-.94-.1Z"/>
  <path class="cls-173" d="M128.98,191.6c-.61-.92-1.23-1.84-1.84-2.76,3.29-.43,5.89,1.11,8.36,2.97,1.04.78.69,4.5-.47,5.16-.77.45-1.66.7-2.49,1.05-.3.6-.6,1.2-.9,1.8-.42.15-.84.31-1.26.46.1-1.42-.08-2.69.81-4.2.93-1.58-.92-3.21-2.21-4.48Z"/>
  <path class="cls-116" d="M131.72,205.75c.75.75,1.5,1.51,2.25,2.26-1.2.46-2.39.93-3.59,1.39.45-1.22.9-2.43,1.34-3.65Z"/>
  <path class="cls-63" d="M130.37,200.28c.42-.15.84-.31,1.26-.46.03,1.68.07,3.36.1,5.05-2.42-.95-1.09-3.01-1.36-4.59Z"/>
  <path class="cls-166" d="M148.58,220.84c-2.63-1.41-3.68-4.04-4.73-6.54-1.09-2.58-1.85-5.35-4.34-6.95-1.4-.89-3.05-1.38-4.59-2.05-.15-.46-.29-.91-.44-1.37,2.26.76,4.73,1.18,6.69,2.41,1.26.8,1.88,2.74,2.6,4.26,1.2,2.54,2.17,5.19,3.39,7.72.36.75,1.24,1.25,1.84,1.91.03.04-.27.4-.42.61Z"/>
  <path class="cls-141" d="M95.11,193.42c4.87-5.91,10.11-11.4,17.06-14.92,2.35-1.19,4.77-2.25,7.16-3.36-.64.64-1.17,1.55-1.95,1.87-7.17,2.95-13.52,6.93-18.26,13.26-.98,1.32-2.65,2.11-4.01,3.15Z"/>
</svg>