<svg id="toddler" xmlns="http://www.w3.org/2000/svg" viewBox="0 0 172.4 303.61"><defs><style>.cls-1{fill:#c69c6d;}.cls-1,.cls-2,.cls-3,.cls-4,.cls-5,.cls-6,.cls-7,.cls-8{stroke:#000;stroke-miterlimit:10;}.cls-1,.cls-2,.cls-3,.cls-4,.cls-5,.cls-7,.cls-8{stroke-width:0.75px;}.cls-2{fill:#ccc;}.cls-3{fill:#0071bc;}.cls-4{fill:#666;}.cls-5,.cls-6{fill:#fff;}.cls-6{stroke-width:0.5px;}.cls-7{fill:none;}.cls-8{fill:#736357;}</style></defs><path class="cls-1" d="M661.19,362.48A9.78,9.78,0,0,0,667,361c2.67-1.78,2.82-.74,2.82-.74s11.41,5.54,17.18,5.33,11.85-5.18,11.85-5.18,1.19-1.78,2.52-.89A9.72,9.72,0,0,1,703.7,362s-4.14,16-18.81,15.11c-16-1-15.92-1.89-17.33-5C664.3,364.85,661.71,362.22,661.19,362.48Z" transform="translate(-598.74 -265.85)"/><path class="cls-2" d="M644.89,397.44l-8.3,34.08,6.82-1.19,79.85,1-1.19-22.52L721.63,396l3.56,23.71,5.62,20.44,25.78-6.22-11-17.78-2.54-3.23-4.28-18.69a15.61,15.61,0,0,0-.59-6.52c-.65-2-3-4.13-3.26-4.74-.74-1.63-3.11-8-5.63-9.63s-9.18-7.41-11.11-7.41-13.33-3.11-13.33-3.11S702.81,376.85,685,376s-19.11-4.59-20.15-5.63-6.08-8.74-6.08-8.74L637.48,366l-1.92,3.4a30.11,30.11,0,0,1-4,2.23c-.75.14-1.49,7.26-3.41,8.29S625,385.3,625.33,386s-5.18,16.89-5.18,17.77-2.08,2.52-2.08,3.86a30.64,30.64,0,0,1-.88,4.74l3.55,4.74L615,411.52l-8,9.92,23.41,13.34s4.89-8.89,5.63-10.37S644.89,397.44,644.89,397.44Z" transform="translate(-598.74 -265.85)"/><path class="cls-3" d="M644.89,430.33l11.26-48.66L713,381s6.22,15.11,6.44,17.33,1.78,14.45,1.78,14.45L728,438.63s-10.37,9.26-17.48,14.37-15.78,9.85-20.89,11-3.33,12.23-8,9.78-.3-1.33-4.3-5.33-8.44-12.08-8.44-16.52S644.89,430.33,644.89,430.33Z" transform="translate(-598.74 -265.85)"/><polygon class="cls-3" points="62.82 128.48 112.15 127.81 119.04 150.93 111.71 167.37 116.82 149.07 109.12 131.29 62.82 128.48"/><path class="cls-4" d="M653.72,483.77l-35.64,7.07S604,491,609,507.11c6.74,21.91,20.67,15.95,22.56,15.8s28-10.8,28-10.8l-8.15-5.63-15.54,5.45,13.76-6.63L636.84,493l-7.07-.49" transform="translate(-598.74 -265.85)"/><path class="cls-5" d="M613.09,491.74s-8.77,5.5-4.11,15.11,5.75,15.68,12.46,16.9,20.73-3.27,20.73-3.27l-14.63,6.79s-18.9,5.52-24.38-12.84c-4-13.44-2.4-16.12.73-18S613.09,491.74,613.09,491.74Z" transform="translate(-598.74 -265.85)"/><path class="cls-1" d="M691.41,494l4.74,4.74,9.45-5.62a9.47,9.47,0,0,0,1.76-4.82c-.07-2.31-4-13.28-4-13.28s-4.89-.63-8.44-1.12-4.2-2.08-6-.5a28,28,0,0,1-5.63,3.26l9.63,11.71Z" transform="translate(-598.74 -265.85)"/><path class="cls-3" d="M669.93,516.89s-7.89-15.54-.72-22.32S688.6,492,688.6,492l2.15-3L680,475.21s-5.68.31-7.82,1-8.85,6.1-8.85,6.1,3.86-5.44,7.16-6.48c2.12-.66,7-1.52,7-1.52l-13-26.22s-13.77-12.52-18-13.76-12.36-1.95-18.5,2.45-9.36,17.38-9.12,19.14l1.74,13.22,5.7,2.38s3.31,4.67,3.59,6.79,2.38,11.25,3.76,11.52,17.29,12.06,17.29,12.06a34.21,34.21,0,0,0,1.87-5,27.24,27.24,0,0,0,1.46-7.07,58.68,58.68,0,0,0-.45,6.78c.18,1.32-1.15,8.22-1.15,8.22Z" transform="translate(-598.74 -265.85)"/><path class="cls-1" d="M624.59,423.3l5.63,5.33s0,3-.15,3.7-1,5.78-3.85,6.08-12.74-10.22-12.74-10.22Z" transform="translate(-598.74 -265.85)"/><path class="cls-1" d="M668.3,512.56l18.07,16.59.59-2.67s-2.52-3.55-1.63-5.63,7.86-13.18,8.74-13.92,3-3,3-3l-7.26-10.52s-13.35-3.27-17.48.45C664.89,500.56,668.3,512.56,668.3,512.56Z" transform="translate(-598.74 -265.85)"/><path class="cls-4" d="M689.24,526.7l30.45,16.55L688.54,528.1a32.7,32.7,0,0,0-1.41,3.52,39.32,39.32,0,0,0-.5,5.29s2.09,3.56,3.66,4.49,12,8.33,13.84,9.68,14.89,12.21,22,12.42,14.69,1,21.18-6,5.14-7.31,5.38-10.85-2.79-5.24-5.42-6.79-14.86-6.6-18.42-10.53-14.09-10-15.12-10.86-5.94-7.24-8.13-9.16-3.68-4.22-5.3-4.46a6.39,6.39,0,0,0-2.89.21l32.66,28.45s-30.81-25.45-32.2-25.14-3.33,2.79-4.84,4.87-5.84,5.62-5.6,8.1A16.44,16.44,0,0,0,689.24,526.7Z" transform="translate(-598.74 -265.85)"/><path class="cls-6" d="M686.72,537.6l1.62,6.4s27.52,19.49,28.56,20.24,8.48,6,20.18,4.78,12.65-5.16,15-7c4.57-3.74,4.29-8.87,4.39-10.23s-4.26-7.8-4.26-7.8a81.43,81.43,0,0,1-1.29,8.93c-.75,3.09-14.74,13.9-25.55,10-11.65-4.18-16.28-7.8-20.83-11.25S686.72,537.6,686.72,537.6Z" transform="translate(-598.74 -265.85)"/><path class="cls-1" d="M752.56,442l12.79-3s.26-.42-2.57-2.85S751.2,431,749,431.35s-11.49,3-11.49,3l-6.61,4.94s13.31-1.79,17.43-1.49A4.33,4.33,0,0,1,752.56,442Z" transform="translate(-598.74 -265.85)"/><path class="cls-3" d="M688.83,473.51l1.85-7.84,4.87-.16L707,472l-9.45-7.09L719,451.52,732.75,447l-12.44,2.4s3.06-6.19,5.23-6.64,19-7.87,23.42-5.49,9.8,7.7,10.48,11,2.88,12.56,3.69,15.34-.44,7.59-.44,7.59-21.77,13.72-24.68,15-22.46,8.1-22.46,8.1l.41-10.58-1.72,2.63-.15,9.62-16.31,5.8a38.09,38.09,0,0,0,5.21-9.32c2-5.33,3.33-11.56-1.64-13S688.83,473.51,688.83,473.51Z" transform="translate(-598.74 -265.85)"/><path class="cls-1" d="M754.77,437.42l-6.22.23s-10,7.11-10.45,7.77a2.72,2.72,0,0,0-.22,2.89c.67.89,2.45,2.45,4,.89s3.78-4.22,6.45-4.67a13.74,13.74,0,0,1,4-.22l-.89,1.11-8,10s-.67,2.89.66,3.34a4.64,4.64,0,0,0,5.56-1.56c2-2.44,7.56-6.89,7.56-6.89l2.44,2.67,1.11-.45L757,455.87s-4,.89-4.44,2.44-2,3.11-.22,3.34,2.66,1.33,6-.45a30.45,30.45,0,0,0,4.66-2.89l-1.55,2.22s-2.89.67-3.78,2-1.78,1.34-.89,2.67.89,1.33,2.89,1.33,4.22-2.44,5.33-3.33,2.67-5.55,2.67-5.55l1.78-7.12s3.11-7.77-.22-12.44-15.34-3.78-16.89-3.33-9.78,1.11-9.78,1.11l-7.33,1.78-2.67.44-.22,1.33,8.66,2.45,6-5.34Z" transform="translate(-598.74 -265.85)"/><path class="cls-1" d="M619.34,424.71s11.53,15.49,11.71,16,0,3.07-.54,3.43-7.93-4.15-7.93-4.15l5.41,3.61s1.8,2,.18,3.6a5.53,5.53,0,0,1-4,1.44l-9.72-5.4,10.44,6.12s1.26.54.54,1.62-1.08,3.06-2.88,1.8a25,25,0,0,0-5.7-2.19c-1.08-.31-1.86-.51-1.86-.51l-6.33-2.56-1.24-.5-1.08-1.26s1.26,3.6,3.78,4.32,8.29,1.44,8.65,3.24a1.68,1.68,0,0,1-1.08,2.17l-6.13-.18-4-.91s-6.12-3.24-6.3-4.14-1.62-3.06-1.8-5.94-.73-7.21-.18-9.55.36-6.3,1.44-7,8.1-7.92,9.9-7.74,7.57,1.8,7.57,1.8l2.16.9,6.67-6.48a2.85,2.85,0,0,1,2.88-.54c1.44.72,3.24.72,2.52,2.88a49.06,49.06,0,0,1-2.52,6.48,17.88,17.88,0,0,1-2.7,3.07,19.89,19.89,0,0,1-.18,2.88,4.45,4.45,0,0,1-1.27,1.62Z" transform="translate(-598.74 -265.85)"/><path class="cls-7" d="M648,376.41s-2.22.89-.59,2.37,6.52,1.33,6.52,1.33,1.18,8.74,7,5.78,1-8-1.19-8,1.49-2.52,1.49-2.52a7.14,7.14,0,0,1-.3-3.56C661.33,370.48,648,376.41,648,376.41Z" transform="translate(-598.74 -265.85)"/><path class="cls-7" d="M708,371.07s-1.91,1.49-1.78,2.28,1.9,2.54,1.9,3.33-3.79,3.5.5,7.78,4.22-3.77,6.79-3.9c4.72-.26,4.48.15,4.74-.45.36-.86,1.92-4.15,1.92-4.15Z" transform="translate(-598.74 -265.85)"/><circle class="cls-8" cx="61.04" cy="117.89" r="3.04"/><circle class="cls-8" cx="111.56" cy="117.15" r="3.04"/><path class="cls-3" d="M641.48,364.7,653,360.56l7.7,12.14a33.05,33.05,0,0,1-4.44,2.67c-1.49.59-8.6,2.67-8.6,2.67Z" transform="translate(-598.74 -265.85)"/><path class="cls-3" d="M711.41,361.74l-4.15,10.37s3.85,3.56,5.33,3.85,8.3,1.19,8.3,1.19l2.67-10.67Z" transform="translate(-598.74 -265.85)"/><path class="cls-1" d="M653.55,323c.76,2.13,0,6.28.64,8.73s3.34,10.9,4.41,12.1,1.56,6.81,3.28,8.36,7,6,8.41,6.59,7.48,2.08,9,3.07,5.25,2.25,10.32,1.08,7.24-3.87,7.95-5.17a52.85,52.85,0,0,1,5.08-6.4,31.57,31.57,0,0,0,4.89-6.68,20,20,0,0,0,1-7.77,18.49,18.49,0,0,1-.2-2.52,7.22,7.22,0,0,0,2.26.13,5.57,5.57,0,0,0,2.06-4.48c-.06-2.53-.7-12.32-1.87-13.2s-3-2.12-4.28-1.64a12.22,12.22,0,0,1-2.3.63s8-6.64-3.74-12.64c-2.42-1.24-8.15-11.12-13.58-11.39s-15.8-.61-20,2.23-10.61,8.54-11,10.84-2,4.78-2.2,7.65S653.55,323,653.55,323Z" transform="translate(-598.74 -265.85)"/><path class="cls-4" d="M674.09,287.28s-1.05,1,1.54,3.52,1.26,2.52,4.92,3,4.44,1.77,6.83.68,5.87-1.88,8-1.43,2.55,5.32,3.15,7.48.15,3.12,3.2,6.73,5,2.87,3.79,5.6-3.74,4.27-3.32,6.15-2.35,1.38-.57,3.38a25.47,25.47,0,0,0,3.93,3.48s-2.48-4.89-1.73-6.94a7.12,7.12,0,0,1,2.69-3.22,8,8,0,0,0,2.88,3.48c2.35,1.76,3.42.86,3.6,3.23s-1.93,4.31-2.08,6.43-3,3.12-1.05,6.28-1.12,3.75,1.94,6.31,3.37,3.71,5.11,4.37,3.33-.78,2,1.65-4.05,3.12-3.22,5.84,5.3,4.64,5.3,4.64,0-.15-1.28,1.53.42.84,2.6-.67,5.09-1,4.87-5.77,2.2-1.36-.23-6.86.8-2.8-.59-8.44-1-1-3.68-5.91-3.27-.89-1.34-7.3,2.44-8.12.18-11.39-2.19-1.79-.11-7.17,4-6.4,2.29-9.15,4.7-7-4.14-8.09-4-3.63-4.6-5,.69-3.54-2.57-7.56-3.43-8.35-9.92-7.73-5.28,2.85-8.72,1.84-3.26-3-6.2-2.57-7.47-3.13-9.19-.49-4.32,3.31-7.95,4.12-4.09.73-4.34,2.11a15.12,15.12,0,0,0,3.38,11.19C672.12,287.11,674.09,287.28,674.09,287.28Z" transform="translate(-598.74 -265.85)"/><path class="cls-4" d="M655.92,338.63s-3.62-1.28-4.35-2.23-2.38-6.24-3.6-7.42-1-.9-1.21-4.31.91-4.17,1-6a5.35,5.35,0,0,0-.54-2.77,18.61,18.61,0,0,1-1.74,3.54c-1.22,2-1.48,6.49-.51,8s3.07,4.8,3.82,5.89-.15,4.21,0,5.24,2.28-.77,3.35,2.52,4.77,4.11,1.83,7.67-5.49,4.52-2.81,6.53,3.78,3.51,3.68,4.87,1.92,6.16-1.77,7.58-8.67-1-9.45-.16-1.45.36-.8,1.76a5.62,5.62,0,0,0,1.49,2s-5.74-2.47-5.82-4.11-3.16-5.39.28-5.42,4.06-3,2.45-5.89-2.44-2.5-3.47-5.49.8-4.9,2-6,2.56-2,.89-4.32-4.51-2.2-5.34-4.93-5.13-4.51-1.4-7.73a6.25,6.25,0,0,0,1.81-7.29s.84-.42-1.25-2.51-3.47-3.4-2.21-7.17,3.52-4.69,2.35-7.67-5.52-5.2-2.48-7,.51-3.81,3.51-9S645,276.58,648,277.51s7.59-2.43,7.59-2.43,1.28-2.57,4.36-.91,8.5,8.22,9,9.94,6,5.29,5.48,7a4.1,4.1,0,0,0-.28,2.29s2.73,1.26-2.76,2.63-11.85,3-13.5,6.1.11,6.12.55,8.16,2.78,3.79-1.68,6.07-1.75,4.59-1.35,6.32-2,3.12-1.1,7S655.92,338.63,655.92,338.63Z" transform="translate(-598.74 -265.85)"/><path class="cls-4" d="M676.65,284.22s.42-3.35,2.12-4,3.75-3.07,6-.24,3.75-1,3.49,4.59.3,12.68,2.35,16.57,4.6,5,4.6,8.18-2.21,6.6-.77,9.39,5.74,3.52,7.68,5.64,2.49,9.08,1.46,10.27-3.71,3.37.91,7.5,7.08,3.49,7.08,3.49a13.51,13.51,0,0,1-6.68-4.89c-2.3-3.57.87-5.51,1.25-7.06s.55-5.62-.5-7.71-4.28-7-6.42-8.37-3.85-3.94-3.28-6.27,2.75-9.07,2.61-10.09-5.7-17-6.89-19.08-6.66-6.84-9.68-6-6.49,1.67-6.47,3.91A9.07,9.07,0,0,0,676.65,284.22Z" transform="translate(-598.74 -265.85)"/><path class="cls-4" d="M666.84,284.71a27.85,27.85,0,0,0-6.75,6.2c-2.5,3.49-4.2,6.28-3,8.35s4,5.87,4.94,7.38,4,4.22,3.49,6.69-2.38,8.57-3.26,9.74-1.68,4-.18,5.11,3.86,1.85,3.9,4.24-3.43,6.47-3,9.4,5.27,7.63,5.43,9.86-2.26,3-2.26,3a3.53,3.53,0,0,0,.86-2.37c-.17-1.17-3.35-3.56-3.89-5.28s-2.91-4.68-2.25-7.46,4.4-4.82,3.19-7-5.32-1.64-5.55-5.35,1.86-10.14,3.12-12.86-4.35-9.56-5-11.11-3.82-4.84-2.31-7.9.28-5.42,2.77-6.83S666.84,284.71,666.84,284.71Z" transform="translate(-598.74 -265.85)"/></svg>