<svg id="tween" xmlns="http://www.w3.org/2000/svg" viewBox="0 0 380.74 327.45"><defs><style>.cls-1{fill:#736357;}.cls-1,.cls-2,.cls-3,.cls-4,.cls-5,.cls-6,.cls-7,.cls-8{stroke:#000;stroke-miterlimit:10;stroke-width:0.75px;}.cls-2{fill:#c69c6d;}.cls-3{fill:#4d4d4d;}.cls-4{fill:#662d91;}.cls-5{fill:#e6e6e6;}.cls-6{fill:#999;}.cls-7{fill:gray;}.cls-8{fill:#534741;}</style></defs><path class="cls-1" d="M576.89,456.56s4,.88,14.22-4.45,38.22-44.89,38.22-44.89l40.89-36s11.56-5.78,16.45-4.89,32,18.67,32,18.67l1.33,5.33,5.33,8.45L768.89,445s4-4,5.78,7.56-.45,12.88-.45,12.88,2.67-1.33,3.56-7.11-3.56-14.22-3.56-14.22,13.78,5.33,15.56,8.45,3.55,8.44,3.55,9.77-9.33,9.34-9.33,9.34l8.89-4.89,4-3.56,5.33,2.22,1.34,3.12,4.88,1.33,2.67,3.11s-1.33,10.67-3.55,13.78-18.67,21.78-18.67,21.78l-11.56-10.67s5.78-4,7.56-6.22,3.55-7.11,3.55-7.11L780,493.44l-4,2.23s-17.33-16-24.89-20.89S712,445,708,440.56s-12.89-16.89-12.89-16.89l2.22-15.11-7.11,17.77s3.11-20.44,2.67-21.77-5.33,17.77-5.33,17.77a56,56,0,0,0,1.33-15.55,15.07,15.07,0,0,0-8-12.45s5.78,2.67,4.44,12-3.55,20-3.55,20-5.34,3.11-10.22-4a59,59,0,0,0-8.45-10.22s.45,9.78,5.33,13.78,16.89,4.44,16.89,4.44-15.11,18.23-17.77,23.11-12.45,17.34-14.23,18.67,7.11-2.22,11.56-8a84.18,84.18,0,0,0,7.55-12s-36.44,54.67-38.22,56-28.89,14.67-33.78,13.78-19.55-.45-21.33-6.22-13.78-24-13.33-30.67S576.89,456.56,576.89,456.56Z" transform="translate(-496.04 -254.95)"/><path class="cls-1" d="M675.11,455.67h43.11L732,464.11s-15.11,3.56-18.22,6.67-13.78,14.66-18.67,16-17.33,4.89-24.89,5.78S648,493.89,648,493.89Z" transform="translate(-496.04 -254.95)"/><path class="cls-1" d="M732,468.11l37.33,26.67s-8,8-9.77,9.33-22.23,7.56-27.12,8.89a102.3,102.3,0,0,0-19.11,8c-4.44,2.67-20,22.22-20,22.22s6.67-13.78,1.78-21.78-10.67-13.77-17.33-16.88-20-8-20-8,3.55-1.78,10.66,0,9.78,0,12.89-2.23,6.23-.89,10.23,1.34S704,505,704,505l-15.56-13.33s12,5.33,18.23,3.11,13.33-6.22,16.44-4.45-6.67-4.44-9.33-4-4.89,2.67-9.34,3.56-10.22-.45-10.22-.45,15.56-6.66,17.34-8.44,7.55-8,9.77-9.33S732,468.11,732,468.11Z" transform="translate(-496.04 -254.95)"/><path class="cls-2" d="M513.33,413.44a36.43,36.43,0,0,1,8.89-1.77c5.34-.45,19.56,3.11,24.89,3.55s28.45-1.33,28.45-1.33l16-11.11,14.22-.45,7.11,4.45s3.11.89,2.67,2.22a28.73,28.73,0,0,1-2.67,4.44l-8.45-1.33s11.56,2.22,10.23,4a58.18,58.18,0,0,0-3.56,6.22l-10.67-2.66,8.89,4s1.34,4-1.33,4.89-12.44-1.78-12.44-1.78l9.77,4-1.77,3.55-7.56.89s-13.78,4.89-15.56,2.22-3.55-1.77-8-2.22-54.22,4.89-57.33,5.78-14.22.89-14.22-.44-4.89-6.23-4.45-10.23,3.12-7.11,6.23-11.11S508.89,413.89,513.33,413.44Z" transform="translate(-496.04 -254.95)"/><path class="cls-2" d="M506.67,412.11s11.11-15.11,14.66-17.33,9.34-.45,14.23.44,14.22,5.34,14.22,5.34l-8.89,10.66s-12.89-3.55-17.78-3.11S506.67,412.11,506.67,412.11Z" transform="translate(-496.04 -254.95)"/><path class="cls-2" d="M813.33,478.78s41.78,20.44,44.89,20.44,8-2.66,9.34-2.66,3.11.44,6.22,3.11,3.11,3.55,1.78,7.11a6.08,6.08,0,0,1-4.45,4,13.82,13.82,0,0,1-2.22,6.66c-2.22,3.56-3.56,4-5.33,5.34s-5.34,6.22-7.12,6.66-5.77,2.23-8.44,2.67-4,4.89-9.33,2.22-11.11-10.22-17.34-10.66-20.89-2.67-22.66-6.23-3.11-12.88-3.11-12.88,9.77-4.89,13.77-10.67S813.33,478.78,813.33,478.78Z" transform="translate(-496.04 -254.95)"/><path class="cls-2" d="M653.33,549s-1.77-8-3.11-10.67-10.66-16-11.11-17.77-.44-16.45,2.67-18.23S652,497,655.56,499.22s27.55,11.56,29.33,13.34,6.67,8,7.11,10.22,1.33,8.89,0,13.78-1.33,14.66-1.33,16.44,3.55,11.56,2.22,14.67-5.33,9.33-10.22,11.55-12,4-13.34,1.78-5.33-6.22-3.11-9.33-7.11-8.89-9.78-13.78S653.33,551.67,653.33,549Z" transform="translate(-496.04 -254.95)"/><path class="cls-2" d="M580,319.89s-8.67-6.67-12.22-4.45a7.3,7.3,0,0,0-2.45,9.78c3.49,6.1,8.13,11.73,10.23,12.89s3.11,1.78,4,.45c1.57-2.37,2.22,3.11,4,5.33s6.22,8.89,8,9.33,19.11,6.67,22.22,7.56,5.86.61,7.55-.89a25,25,0,0,0,6.23-8.45c1.77-3.55,4.88-12.88,6.66-16s2.67-12.44,2.67-17.33,1.33-2.67,0-7.55-5.1-19.85-24.45-20c-13.55-.12-20.66,2.33-26.33,7.66C583.75,300.44,580,319.89,580,319.89Z" transform="translate(-496.04 -254.95)"/><path class="cls-3" d="M638.44,316.33l-.33,6.67a3.64,3.64,0,0,0,2,.89,4.9,4.9,0,0,0,2.11-.67,2.28,2.28,0,0,1-2.22-1.33c-.89-1.56-.89-3.33.33-4.33a23,23,0,0,1,2.34-1.67s-3.45-.89-3.45-1.22,1.22.44,2.78-1.34a17.2,17.2,0,0,0,2.56-4.22s-.12,1.56-2.45,1.22-3.33-2.55-2.33-3.66,1.11,1.33,2.89-2.45,7.77-5.33,7.77-5.33-4.77.33-6.11-.67-.89-3.78-.55-4.22a11.85,11.85,0,0,1,2.66-1.33,9.4,9.4,0,0,1-4.88-2c-2-1.78-15-8.78-15-8.78S634.44,292,636,293.33a39.22,39.22,0,0,0,6.11,3.45s-13.22-6.78-14.33-8.22,5.13,8.53,7.44,11.77C638.78,305.33,638.44,316.33,638.44,316.33Z" transform="translate(-496.04 -254.95)"/><path class="cls-3" d="M578.22,321.11l-2.78,2.67a11.5,11.5,0,0,0,4.34-1.45,7,7,0,0,0,2.22-2.89l-1.22,5.45s0,.78,1.89-2.45a93.21,93.21,0,0,1,5.77-8.11s11.12,1.78,14.67-14.66,2.56-21.89,2.56-21.89S599.44,300.89,595,305s-.22-.89.89-3.22S600,289.33,600,289.33s3.89-19.22,2.89-24.44-2.67-10.45-6.45-9.45-11.22,1.12-17.44,7.12-14.44,10.55-16,19.33-2.78,10.22-2,16.11,2.22,15.11,2.22,15.89.45,3-.33,3.44,1.55,0,2.11-1.44,3.89-3.56,3.89-3.56,4.11,0,5.89,1.67,2.89,2.22,3.22,3.44A16.53,16.53,0,0,1,578.22,321.11Z" transform="translate(-496.04 -254.95)"/><path class="cls-3" d="M593.11,273.11s3.78,0,1.33,7-1.33,7.78-4.88,13-13.23,9-13.23,9,14.23.22,17.56-3.55,9.67-10.56,9.89-12.78.33,6.44-1.22,8.89-6.34,10.77-9.23,12.89a21.48,21.48,0,0,1-7,3s9.78-1.34,12.23-5.12a48.23,48.23,0,0,0,3.33-5.77s-.45,6.89-2.11,9.33-3.89,6.22-5.34,6.67a16,16,0,0,1-3.11.55s6.45,1.89,7.67.22,3.56-1,5.67-5.11,1.89-3.77,1.89-3.77-.23,4.22-.67,4.88a12.5,12.5,0,0,1-2.22,1.89s3.11,1.11,4.22-1.55a24.25,24.25,0,0,0,1.44-5.89s2,2.67,1.89,3.44a8.37,8.37,0,0,1-.55,1.78s1.55.33,2.89-2.55,1.66-13.12,1.66-13.12,4,6,6.11,8,8,6,9.67,6.23a7.51,7.51,0,0,0,3.33-.45,42.83,42.83,0,0,1-6.77-4.55c-2.12-2-4.23-6.34-4.23-6.34s4.78,5.56,6.78,6.45,2.11,2,4.89,3.22,6,2.56,6,2.56S637.89,301,635,297s-4-5.78-10-13.89-15-14.78-17.11-14.89a6.57,6.57,0,0,1-3.78-1.78s10.22,11.67,11.89,14.78a26.84,26.84,0,0,1,2.33,7.22s-11.22-14.22-12.66-16.88-4.23-10.89-4.23-10.89.34,6.55-.33,10a51.58,51.58,0,0,1-2.11,7.22s-2.11-5.11-3.78-6.33a8.88,8.88,0,0,0-3.89-1.45l1.56,2.56Z" transform="translate(-496.04 -254.95)"/><path class="cls-3" d="M601.11,255.67a48.7,48.7,0,0,1,2.45,4.55,14.56,14.56,0,0,1,1,4.45s7.22,2.55,10,5.22,8.66,9,8.66,9L638.78,287s-3.78-13.56-13.67-21.33S601.11,255.67,601.11,255.67Z" transform="translate(-496.04 -254.95)"/><path class="cls-4" d="M615.26,402.48l59-61s22.22,8,32.59,8,26.38-1.18,26.38-1.18l-15.12,32-24-13s-10.34-3.78-15.7-2.07C664.44,369.59,629.48,404,629.48,404L611.7,427.07l6.23-20.14Z" transform="translate(-496.04 -254.95)"/><path class="cls-2" d="M627,358.48l-7.4,6.52s2.81,1.63,7.85-.59S627,358.48,627,358.48Z" transform="translate(-496.04 -254.95)"/><path class="cls-5" d="M575.11,412l-23.85,1.19V405l6.22.15,6.82-10.37s9.33-2.22,16.59-3.26S606.37,389,606.37,389s-18.22-.89-20.59-.74-20.45,4-20.45,4l5.78-9.48-3.7,3s.59-10.52-.6-17.48-4.88-15.85-4.88-15.85,3.11,12,3.26,16.59.44,17.93.44,17.93l-4.15,8s-7.11-6.67-11.7-8.74a18.88,18.88,0,0,0-9.19-1.49,81.18,81.18,0,0,1,9.93,4.74c3.26,2.08,9.18,6.67,9.18,6.67l-3.4,6.82s-12-8.89-18.37-11.12-11-2.22-12.74-1.62a26.12,26.12,0,0,0-4.75,2.66l25.19-38.37s4.59-4.59,6.67-5a31.14,31.14,0,0,1,5.18-.44s-2.22-1.93-3.85-1.63a16.9,16.9,0,0,0-4.44,2.22l6.37-4.15h5.77s3,.3,4.45-.44,4.59-3.85,6.52-3.85a22.51,22.51,0,0,1,4,.44s.74-.59-.45,1.78a11.56,11.56,0,0,0,.15,8.89c1.19,2.37,3.11,8.15,2.52,10.07a33.52,33.52,0,0,1-1.78,4.3s4.59-2.37,4.3-5.63-2.37-8.44-2.52-11.7a25.65,25.65,0,0,1,1.18-7.41l7.71,13.48s8.89,2.82,11.26,3.85,14.66,6.37,17.33,7,6.67,2.51,8.89,1.33,5.63-1.33,6.37-4-3.85-8-3.85-8a33.24,33.24,0,0,1,7.26,2.81c2.66,1.63,11.11,3.26,13.18,3a7,7,0,0,1,4.15,1L613.48,402l-1,2.22-6.51-3.56-17.19,1.63Z" transform="translate(-496.04 -254.95)"/><path class="cls-4" d="M721.93,329.89c.88-3,15.26-5,15.26-5L727.11,342C727.5,341.28,719.69,337.49,721.93,329.89Z" transform="translate(-496.04 -254.95)"/><path class="cls-6" d="M719.41,333.74l-8,14.22,18.07-.89a32.14,32.14,0,0,1-7.41-6.51A12.5,12.5,0,0,1,719.41,333.74Z" transform="translate(-496.04 -254.95)"/><path class="cls-7" d="M559.56,439.22l14.66-1.33-6.66,4.89L601.33,437s-2.42,6.54-5.77,8.89c-2.4,1.68-18.51,6.16-21.78,10.67l-8,15.11Z" transform="translate(-496.04 -254.95)"/><path class="cls-8" d="M533.33,512.11s3.56-5.78,1.78-10.22S517.19,484,521.33,474.33c3.86-8.95,6.52-12.14,16.3-12.59s17.93,6.82,17.93,6.82l7.55,10.22-1.33-16.45s-4.45-15.55-25.34-13.77c-20.24,1.72-23,6.55-28.44,13.77-4.44,5.93-6.67,22.23-2.67,27.56S533.33,512.11,533.33,512.11Z" transform="translate(-496.04 -254.95)"/><path class="cls-8" d="M500.59,473s-2.07-11.85.89-16,7.11-11.56,10.67-13S535,440.11,535,440.11l11.85-1.18,10.67,3.26,1.48,8s-17.77-6.52-34.66-2.38c-16.57,4.07-19.56,16.89-19.56,16.89Z" transform="translate(-496.04 -254.95)"/><path class="cls-8" d="M536,521.89l-.89-7.56s2.22,0,3.11-4,1.34-5.33,0-10.22-16.44-15.55-9.33-27.11,19.11-7.56,31.55,12,16,37.33,16,37.33Z" transform="translate(-496.04 -254.95)"/></svg>