<svg id="Aurelia" xmlns="http://www.w3.org/2000/svg" viewBox="0 0 237.24 370.55"><defs><style>.cls-1{fill:#ffac9f;}.cls-1,.cls-2,.cls-3,.cls-5{stroke:#000;stroke-miterlimit:10;stroke-width:0.75px;}.cls-2{fill:#666;}.cls-3{fill:#c7b299;}.cls-4,.cls-5{fill:#ba6f44;}.cls-6{fill:#884b34;}</style></defs><path class="cls-1" d="M717.78,211.37A13.35,13.35,0,0,0,707.11,206c-7.11,0-12.44,4.15-13.63,5.92s-2.37,13-3,14.82-6.52,5.33-8.3,6.52-6.52,1.18-7.7,3,.59,5.33-2.37,8.3-5.34,4.14-5.93,6.51,4.74,3-.59,7.71-7.7.59-7.11,8.89,5.33,7.7,2.37,10.66-7.7,1.78-5.93,8.89,13,8.89,13,11.26,1.19,4.74,1.19,7.71-5.34,8.29-5.34,8.29,19.85,23,31.71,21.85,12.51,1.1,35.25-50.89c4.15-9.48,1-11.77,1.78-17.18.65-4.3,7-10.64,4.74-20.74C735,236.85,729,212,726.07,209.59S717.78,211.37,717.78,211.37Z" transform="translate(-543.62 -182.69)"/><path class="cls-1" d="M662.44,317.89s-4.66.44-4.66,3.11,3.55,3.11,4,5.11a19,19,0,0,1,.22,4.67s10.89,9.78,17.78,10.44c5.6.54,14-2.44,14-2.44s-16.45-6-18.89-8.67S662.44,317.89,662.44,317.89Z" transform="translate(-543.62 -182.69)"/><path class="cls-2" d="M662.44,334.56s.89,1.55-2.44,3.11-3.33,1.77-4.44,3.11-5.56,1.78-5.34,2.66-3.55,2.45-.22,4.23,6.89,3.55,6.89,3.55,18.67,11.34,22.44,10,13.11-4.66,14.23-6.22,4.44-5.33,4.44-5.33-6.22,16.89-15.33,16.66-26-10.66-26-10.66-1.78,1.33-5.56,1.33-9.78-6-9.78-6l3.78,14.67s13.56,14.66,24.67,14.66,21.55,2,26-3.11,6.89-20,6.89-20a74.69,74.69,0,0,1-2.45-9.11c-.44-3.11-1.11-6.67-.44-8s-2.89-3.11-2.89-3.11c.25,0-2.66,6.3-16.45,6C672.56,342.83,662.44,334.56,662.44,334.56Z" transform="translate(-543.62 -182.69)"/><path class="cls-2" d="M649.33,373.22s15.78,8.67,18.67,9.11,20.67.45,22.89-.22,6.44-1.55,8.22-3.78S704,360.11,704,360.11s8,13.11,7.33,17.11-2.22,32.22-3.77,37.78-11.78,32.67-11.78,32.67-26-38.45-30.89-46.45S649.33,373.22,649.33,373.22Z" transform="translate(-543.62 -182.69)"/><path class="cls-3" d="M634.44,333.67s-.22,1.55-.66,6.44,28.44,62.67,34,71.33,26.44,38.23,35.11,46.45,22.89,19.55,22.89,19.55-66-18.66-69.11-21.33S621.33,430.33,616,429.67s-22.44-7.34-22.44-7.34l48.88-44.22-34.22,24.45L594,395.22l11.78-40.44s9.33-6,13.78-9.56S634.44,333.67,634.44,333.67Z" transform="translate(-543.62 -182.69)"/><path class="cls-3" d="M698,448.33,716.89,465s33.78-55.33,35.33-58.22-1.33-8.67-8.66-14.67-28-17.78-28-17.78l22.22,11.56,5.55-9.33s-17.77-14.89-21.77-17.12-16.45-13.11-18.67-13.55.44,11.11,4.89,16.89,6,36.22,3.33,45.33S698,448.33,698,448.33Z" transform="translate(-543.62 -182.69)"/><path class="cls-3" d="M738.22,369.89l8.3,5.92-6.22,8.6s14.51,16.29,14.51,17.18-35.25,62.82-35.25,62.82l8.29,9.78s-2.37,35.85-1.78,39.7,3,21.63,3,23.41-3.56,10.07-5.63,11.26,10.26-5.93,12.92-5.93,6.23,3.26,8.3,5.63,3,2.67,3,2.67l4.74-5.34,1-48s16.3-3,19.56-38.22,14.81-63.11.89-72S738.22,369.89,738.22,369.89Z" transform="translate(-543.62 -182.69)"/><path class="cls-3" d="M602.52,356.26,591,394.19l15.71,11-17.19,17.78L615,433.3l37,25.18,71.7,21.63s-1.48,23.11-1.48,28.15,3,27.26,3.26,29.63-9.18,10.37-10.07,11-17.48-1.78-20.74-1.18-28.74,6.22-31.11,5-37.34-7.4-39.12-11.55-4.74-24-4.74-24-24-45.34-25.18-49.19-5.33-33.48-5.33-33.48L588,464.11s.59-30.22-5.63-45.92-15.11-24.6-15.11-24.6,6.22,11.56,7.7,18.37,3.26,26.67,3.26,26.67-7.11-25.19-13-33.19-18.08-21-18.08-21-2.67-.6,3.26-4.15,12.15-7.11,17.19-8S602.52,356.26,602.52,356.26Z" transform="translate(-543.62 -182.69)"/><path class="cls-4" d="M657.93,353.3s-14.82-3-12.15-6.82-2.08-2.37,3.26-4.74,6.52-5.33,6.52-5.33,7.7,0,4.74-5.93-7.11-9.78-5.93-11.26,4.44-1.78,6.82-5.33,5.62-5.33,4.74-9.78-3.26-6.22-9.49-10.07-5-9.48-3.85-12.15,5-3,6.22-5-4.44-7.41-3.25-10.66,3-5,5-7.12,3.26.89,3.56-3.55-1.19-6.22.89-8.3-1.19-10.07,8-13.92,13.63-4.45,15.7-9.19-3.26-11,2.67-14.81,8.59-5,15.4-4.74,13,.88,14.23-3.86,14.52-13.92-22.82-17.18-33.78,4.15-33.78,4.15-7.7-.6-10.37.89-9.48,1.18-14.51,5.33-6.23,3.85-11,10.37-18.07,40.3-18.37,45.93,1.78,9.18,5,13.62-5,.6-2.07,8.89S625,289,625.93,292s-4.74,1.19-9.49-2.66-15.4-7.71-19.85-3.86a35.2,35.2,0,0,0-7.11,8.89s-2.07-2.37-3.26.3a8.36,8.36,0,0,1-4.15,3.85s-3.85-2.37-10.66,3.26-9.19,1.78-10.08,7.41.6,8.29.6,8.29-3.26-1.48-5.63,5.93.59,11.26.59,11.26-1.48-.3-3.85,6.22S551,350,551.26,352.7s4.44,5.93-1.19,4.74-6.22-4.14-6.22-4.14-1.18,2.07,1.78,4.74a14.75,14.75,0,0,0,5,3.26s-2.08-1.78-2.08,2.37.89,4.74,2.67,5.92,1.48.89,1.18,3,2.37,2.37,2.37,2.37,13.34-4.74,16.3-6.52,15.7-5.34,23.41-10.08,11-5.92,19.85-12.44S632.15,334,632.15,334l7.11-8.3s-2.67,3.56-1.19,5,5,.59,5,.59-7.11,3.26-7.11,6.52,5.33,11,5.33,11-2.56-.49,1.48,3.56C649.33,358.93,657.93,353.3,657.93,353.3Z" transform="translate(-543.62 -182.69)"/><path class="cls-5" d="M719.85,207.81s7.11-1.18,7.71,0S739.7,246,740,249.59s-4.44,17.48-4.44,17.48-1.49,0-1.19,3,1.78,7.11.89,8.89-6.22,14.51-7.11,15.7-3.85,4.74-.59,5.93,7.4.88,6.81,2.66-2.67,3.56-1.48,4.74,4.15,1.48,4.15,2.37-3.56,1.19-3.56,1.19-.59,3.26,2.67,2.07a9.15,9.15,0,0,0,4.44-3s-3-2.37-3-4.15,3.26-3,1.48-5-5-2.66-5-5.63,4.74-.59,5.63-3.85a10.77,10.77,0,0,0,.3-5.33s.59,3.26,3,.89a17.44,17.44,0,0,0,3.56-6.22s.89-.3-3,.89-3.56-1.78-2.08-3,7.11.3,11.26-6.52.3-8.89.3-8.89,3.26-3.55,3-6.81-4.15-6.22-4.15-6.22,4.45-4.15,3.56-8.59-5.93-7.41-10.37-12.75-.3-24-2.67-27.55-7.7-8.89-11.26-7.11S719.85,207.81,719.85,207.81Z" transform="translate(-543.62 -182.69)"/><path class="cls-6" d="M721.33,188.67s1.19-.3,3.56,3.26-6.52,17.18-6.52,17.18-7.11-5.92-12.44-4.74a36.13,36.13,0,0,0-8.6,3s-.89-1.77-1.77-2.07-4.45-1.19-4.45-1.19.89-1.48,4.74-.59,5,.59,5,.59.89-4.44-.89-4.74-5.93-1.48-5.93-1.48,8.89-2.07,11.56-.29,5.93,5.92,5.93,5.92,3.55-3.55-.89-6.22-6.82-3.85-6.82-3.85,6.82-3,10.37,1.18,4.45,6.52,4.45,6.52,3.26-3,3.55-6.52A12,12,0,0,0,721.33,188.67Z" transform="translate(-543.62 -182.69)"/><path class="cls-6" d="M602.22,332.56s-1.78-3.86,3.85-4.75,6.23,4.45,11,1.49,3-5.93,7.11-8,4.44,1.77,8.29,0,8.3-2.67,9.78-7.41-1.78-10.08-2.66-11-9.19-2.08-8-8.3,3-8.3,5.33-13.63-.89-13-1.48-16.89,3.26-7.11,3.26-7.11-5.93,3-5.63,8,4.44,6.52.89,11.26-3.56,14.81-3.56,14.81-3-7.11-3-13.33-1.78-8.3-.3-14.22-.59-1.78-1.18-8.89-2.08-6.22.29-8.89,5-5.33,5-5.33-6.52,1.78-7.41,4.74-3.85,9.48-2.07,12.44,4.15,11.85,2.66,14.22,3.26,7.12,1.78,8.3-7.7-1.18-7.11-5.92a37,37,0,0,0-.3-11.86c-.59-2.37,1.19-9.48,1.19-9.48s-4.44,0-4.44,5-1.49,18.37,0,20.44,13,14.52,13,14.52,5.34,3.26,6.22,11.26,3.56,10.08-2.37,10.37-10.07-3.26-11.25-.89-3,8.89-7.41,8-6.82-1.18-8.3.6S602.22,332.56,602.22,332.56Z" transform="translate(-543.62 -182.69)"/><path class="cls-6" d="M725.78,207.81c2.21.45,3.55,5.93,3.55,5.93s2.67-4.44.3-6.81a5.16,5.16,0,0,0-5-1.49s-1.48-3.25,5.34-3.25,12.74,8.88,12.74,8.88,3.85-12.14-5.93-13.63-9.78-2.66-10.67-1.18-5.63,12.15-5.63,12.15A9,9,0,0,1,725.78,207.81Z" transform="translate(-543.62 -182.69)"/><path class="cls-6" d="M734.37,229.44s3.26,13.63,3.85,16.6,2.08,8.89-.29,13-5,7.12-4.74,10.67,1.48,7.7.59,11S727,297,727,297s2.67-7.11,6.82-9.78,9.18-6.52,7.11-12.44,5.33-5.93,3-13.63-4.44-15.41-4.44-15.41,6.22-1.18,3-6.81A38.71,38.71,0,0,0,734.37,229.44Z" transform="translate(-543.62 -182.69)"/><path class="cls-6" d="M561,355.37s-5-1.18-3-6.81,6.52-6.82,6.52-6.82-1.18-7.41.6-10.67a12.24,12.24,0,0,1,4.74-4.74s-.6-2.66,2.66-6.22,5.34-3.85,5.34-3.85-8-.89-1.49-4.45a23.5,23.5,0,0,1,13.63-2.37s-.88-1.18,3.56-3.25,11-1.49,11-1.49-4.15-7.7-6.52-6.22-9.48,7.41-10.37,7.41-7.11-1.19-7.11-1.19,2.37.3,6.52-2.37.3-4.74,6.52-8,6.52-3.26,10.37-1.18,5.93-.3,7.7.89A42,42,0,0,0,617,296.7s2.37-2.07-1.78-3.85a21.62,21.62,0,0,0-7.7-1.78s-1.49-3,2.37-2.66,6.22.59,8,3,3.26,1.19,3.26,1.19.29,4.44,3.85,6.22,7.4,4.15,7.4,4.15-5.92-2.67-10.66-1.78-9.48,6.52-9.48,6.52-8-.6-12.74,1.77-3.56,7.71-3.56,7.71-10.67-5.63-14.81,6.81S577,340,577,340s.89-3.85-5.34,0S561,355.37,561,355.37Z" transform="translate(-543.62 -182.69)"/><path class="cls-6" d="M636.89,331.37s-7.7-4.15-11.26-.59-5.33,11.55-5.33,11.55-7.71-1.77-4.45-5.33,5-4.44,5-4.44-5.33.88-.89-3,13.33-3.26,13.33-3.26,3.86-.89-.89-3-8.88-2.67-11.25.3-4.15,5-5.63,5.63-.3-.6,1.77-3.86,3.26-5.63,4.74-6.51,2.67,2.37,8.89,1.18,1.78,3,7.71-3S649.33,307.37,644,305s-3.85-.3-7.11-2.67a41,41,0,0,0-5-3.26s3.26.3,2.67,7.41-1.19,10.08-4.45,8.3-2.37-5.93-7.11-3-.89,4.75-5.33,6.82-6.52-10.37-11-5.33-4.15,14.22-4.15,15.7a31,31,0,0,1-.3,3.56s-6.52-2.08-9.48,1.18-9.78,2.67-3.26,8.89,2.67,8,8.59,4.44,7.41-6.51,7.41-6.51-1.18,3.25-2.07,6.81a5.76,5.76,0,0,0,1.48,5.63Z" transform="translate(-543.62 -182.69)"/><path class="cls-6" d="M689.56,214.11s2.22,7.33.22,10.45-8.2,8.66-16,9.77c-1.56.23-1.78,1.11-1.56,2.67s1.78,2.44.22,4.67a19.75,19.75,0,0,1-4.66,4.22s1.33-.45-.22-6.45-3.76-4.43-1.78-7.33c3.33-4.89,5.52-9.3,17.11-7.11C691.11,226.56,689.9,214.39,689.56,214.11Z" transform="translate(-543.62 -182.69)"/><path class="cls-6" d="M657.11,265.44s-.89.89,0,4,3.56,2.89,2.67,6.67-5.56,3.78-6.45,6.67-1.55,5.78,2.67,8.89,5.78,4.89,7.78,5.33,3.33,4,3.55,5.11-3.11,6-3.11,6a5.56,5.56,0,0,0,.22-6.22c-2-3.56-16-3.11-16.88-11.11s4.22-8.22,6.66-15.11-.89-6.89-.44-9.34,6-6.44,6-6.44S658.22,264.33,657.11,265.44Z" transform="translate(-543.62 -182.69)"/><path class="cls-6" d="M664.22,309.44s2.89-.66-2.66,2.89-8.89,3.11-8.67,6.89,2,5.56,3.33,8,5.56.89.45,5.56-12.23,4.22-12.89,7.55-1.56,7.78.66,9.11a32.33,32.33,0,0,0,6.89,2.45s-6.89-1.56-4.44-6.67,10.22-3.78,12.67-9.11,5.11-7.55,1.55-12.44-2.67-6.67-.67-8.45S664.22,309.44,664.22,309.44Z" transform="translate(-543.62 -182.69)"/></svg>