<svg id="baby" xmlns="http://www.w3.org/2000/svg" viewBox="0 0 211.27 203.82"><defs><style>.cls-1{fill:#ccc;}.cls-1,.cls-2{stroke:#000;stroke-miterlimit:10;stroke-width:0.75px;}.cls-2{fill:#c7b299;}</style></defs><path class="cls-1" d="M653.92,431.61s-.31,36.29,0,37.47,9.51,2.36,9.51,2.36.23-26.39-3.54-34.41-1.29-11.31-1.29-11.31a149.43,149.43,0,0,1,4.83,15.56c1.17,5.65,1.65,30.16,1.65,30.16s-.81,2.09,5.18,0c8.26-2.88,19.1-12.49,19.1-12.49s-2.05-10.6-3.7-17.67-21.29-29.93-28.83-35.12-8.72-10.71-16.5-11.83-12.72-2.46-20.74,4.34-14.85,33.57-15.21,40.23c-.49,9.08-2.86,18.19,2.21,24.38,14.26,17.44,15.6-9.51,15.6-9.51s-3.51-25.83-.69-31.11c2.41-4.51,11.87-12.89,18-13.12,5.6-.21,10.88,2.3,12.29,6.54S653.92,431.61,653.92,431.61Z" transform="translate(-589.44 -313.25)"/><path class="cls-1" d="M600.16,448s-11.14-22.73-10.3-27.56c1.59-9,6.31-23.68,16.73-31s8.53-8,13.95-8.48a55.89,55.89,0,0,0,8-1.13l8-10.54,36.7,52.83S647.44,388,635.89,388.67s-20.27,9.47-25.93,18.66S600.16,448,600.16,448Z" transform="translate(-589.44 -313.25)"/><path class="cls-2" d="M683.36,357.39s-3.34,30.71,0,33.73,26.17,18.61,52.73,18.61c5.76,0,15.76-2.78,16.87-4.46s4.74-2.56,7.38-6,9.11-4,10.33-4.56,2.89-5.05-4.9-4.48-10,1.69-18.38,6.15-20.59-6.15-20.59-6.15l-15-12.23s1.67-12.25.55-14.47.63-6.32.88-12.9c.24-6-4.22-12.72-15.23-8.44C680.69,348.88,683.36,357.39,683.36,357.39Z" transform="translate(-589.44 -313.25)"/><path class="cls-2" d="M719,412.23s-9,2.69-11.22,6.28l-2.25,3.59s-6.73-13.92-9.88-16.16-10.32-6.68-10.32-6.68Z" transform="translate(-589.44 -313.25)"/><path class="cls-2" d="M769.79,383.87c-1,.17-2.51,1.54-2,2.53s2.63,1.23,3.94,2.42,2.52,4.33,1.53,5.88-9,2.78-10.94,5.25-5.64,3.72-7.12,5.2-1,2.72-1,2.72-17.33,3.22-22.77,6.44S719,422.1,719,422.1a56.23,56.23,0,0,1,4.91-4.45,55.47,55.47,0,0,1,6-3.47s-12.26-1.74-17.46,2.22-5.81,7.31-5.81,7.31.5,9.4,4.46,12.62,8.91,7.67,8.91,7.67a32.37,32.37,0,0,0,14.1-4.2c6.44-4,30.23-29.95,30.23-29.95s4.94-6.27,10.67-9.32,6.61-6.51,6.61-7.5c0-7.6-1.45-12.06-2.47-13.12s-3.35-1-3.71,0,.74,3,1.48,5.2a10.34,10.34,0,0,1,.25,4.7,31.59,31.59,0,0,0-2.44-3.41C774,385.66,770.76,383.7,769.79,383.87Z" transform="translate(-589.44 -313.25)"/><path class="cls-2" d="M714.11,376.94s12.17,10.31,16.08,12.62,6.68,5.33,12.37,5.14,8.91-2.66,13.86-4.15a62.19,62.19,0,0,1,10.64-2s-2.84-2-1.29-4a5.56,5.56,0,0,1,4.5-2.44c1.45-.07,4,1.95,4,1.95a17,17,0,0,1,0-4.65c.4-1.8,1.42-1.78,2.4-2,2.1-.47,3-.14,4.24,1.24a7.09,7.09,0,0,1,.82,2.7s9.37-5.94,11.6-9.41,7.91-9.4,6.92-22.27-5.69-23.26-12.62-28.21-14.84-5.44-17.81-5.69-3.72-3-10.4-2S737.56,322.71,734,325.5s-10,9.37-10.71,12.34.25,7.92.25,7.92-7.42,6.66-7.92,8.4a46,46,0,0,0-1.48,10.66C713.86,370.51,714.11,376.94,714.11,376.94Z" transform="translate(-589.44 -313.25)"/><path class="cls-2" d="M627.25,456.37s8.43,26.73,9.65,30.94a90.22,90.22,0,0,1,1.73,9.4s13.37.74,16.09.25,14.11.63,19.06-1.85,10.54.61,11.58-2.61-.1-3.24-.1-3.24,3-.11,3.78-1.26-.45-4.18-.45-4.18,2.09,0,2.83-2.75-1-3.29-1-3.29,1-.36-.26-3.09c-1.49-3.22-10.14.29-11.87,2.27s-18.11.89-19.43.7c-5.08-.75-2.85-30.94-2.85-30.94a127,127,0,0,1-.25-15.83c.23-5.58-1.24-12.62-2.48-14.6s-8.41-4.71-11.63-3.22-12.37,6.68-14.35,11.38-2.47,16.58-2.47,21.28S627.25,456.37,627.25,456.37Z" transform="translate(-589.44 -313.25)"/><path class="cls-2" d="M627,514s-14.84-15-14.35-16.79-2.72-5.23,1.49-7.71,17.32-11.38,17.32-11.38,4.72,7.42,4.22,10.64,1.32,15.84,0,20.79-4.25,7.92-6,6.93" transform="translate(-589.44 -313.25)"/><path class="cls-2" d="M671.3,361.6l10.58-7.44s-1.43,10.41-1.18,14.61-.25,13.86-.25,13.86Z" transform="translate(-589.44 -313.25)"/><path class="cls-1" d="M649.12,366.56H665.6l10.71,27.23s.85,7,3.09,7.71,10.25,4.08,11.19,9.08,7.31,16,7.75,17.95,4,6.6,6.5,8.35,12.73,5,14.19,18.06a40.27,40.27,0,0,1-7.82,28.88s-3-23.82-6.52-27.7c-4-4.41-13.27-4.3-13.27-4.3l-26-49.66-21.07-32.3,5.25-1.1,19.12,31.86Z" transform="translate(-589.44 -313.25)"/></svg>