<svg id="dad" xmlns="http://www.w3.org/2000/svg" viewBox="0 0 293.02 333.86"><defs><style>.cls-1{fill:#c7b299;}.cls-1,.cls-2,.cls-3,.cls-4{stroke:#000;stroke-miterlimit:10;}.cls-2{fill:#998675;}.cls-3{fill:#333;}.cls-4{fill:#e6e6e6;}</style></defs><path class="cls-1" d="M591.11,512.11S612,465.89,616,460.56s16-23.12,17.33-25.34,1.78-8,4.89-10.66,6.22-8.89,8-11.56,2.22-7.11,4.89-9.33,35.11-8.89,37.78-8,15.55,13.77,15.55,13.77-5.77-4.88-9.77-4S668,411.22,668,411.22s24-4,28-3.55,13.33,8.89,15.56,12,6.66,13.77,6.66,13.77-15.55-12-19.55-12-22.23,1.34-22.23,1.34L700,424.11s22.67,13.33,23.11,14.22,2.22,4.89.89,6.23-3.11,2.22-8-.45-18.22-8-18.22-8l-20.45.89,17.78,1.78L708,443.22s7.56,5.78,8,7.56-.44,2.22-4.89,2.66-9.78-2.66-9.78-2.66l-19.11.89s-4.44,6.22-9.78,6.66S642.52,492.56,639,495.22s-25.18,7.56-31.4,12-23.12,16.89-23.12,16.89S590.22,515.67,591.11,512.11Z" transform="translate(-521.25 -229.24)"/><path class="cls-1" d="M676,466.78c6.22.89,19.11,15.55,19.11,15.55s11.56,4,16.45,5.78,22.22,21.33,26.66,23.56,35.56,15.55,35.56,15.55S743.56,461,740.89,458.78s-14.22-13.34-14.22-13.34.44,2.23-3.11,2.67a48,48,0,0,1-5.34.45s1.34,4,0,5.77-9.33,3.11-11.11,2.23-16-1.78-20-2.67-4.44,1.33-7.55,3.11a41.75,41.75,0,0,1-8.45,3.11l-6.67,8.45s-.88,4,4.89,5.77,13.78.45,13.78.45Z" transform="translate(-521.25 -229.24)"/><polygon class="cls-2" points="125.86 172.2 116.08 188.65 111.64 197.09 106.3 182.43 125.86 172.2"/><path class="cls-2" d="M656.89,397.44l33.33-4.74,12.15,8.89s-4.72-11.52-4.81-19.26c-.06-4.08-.37-12.14,1.33-17.33a34.48,34.48,0,0,1-5.33,2.11c-1.93.45-4.23-2.7-4.23-2.7s3.89.81,6.89-.52c5.19-2.31,16.94-28.77,10.45-33.22-7.78-5.34-29.78,4.55-32.45,10.33s-1.33,19.11-6.22,29.33S656.89,397.44,656.89,397.44Z" transform="translate(-521.25 -229.24)"/><path class="cls-1" d="M590.89,288.33s-6,22.45-6,25.56-.89,2.22,3.11,7.55,6.67,9.34,6.67,11.56-12.58,23.19-11.78,26c1.11,3.89,2.53,3.94,5.11,5.11a14.77,14.77,0,0,1,2.67,1.78l-1.34,9.78s-.22-.23.67,2.44,4.67,3.78,4.67,3.78-2.67.89-2.67,2.22,1.78,4.89,2.22,6.22,3.11,2.23,1.78,5.34-1.83,6.41-.33,9.22a13.5,13.5,0,0,0,11.44,7.67c6.22.44,43.56-14.23,43.56-14.23s9.55-16.77,12.22-21.66,7.89-34.23,9.22-37.78,17.45-14.45,17.45-14.45l-32.67-34.11a48.15,48.15,0,0,1-10.22,3.11c-4,.7-12.89-.74-12.89-.74s-9.2,3.2-13.56,3a131.83,131.83,0,0,1-22.43-3.6A14.75,14.75,0,0,1,590.89,288.33Z" transform="translate(-521.25 -229.24)"/><path class="cls-3" d="M703.56,267.67s-48.89,20.74-50.08,24.89-1.18,8.88-3.26,10.66-4.44,5.34-4.44,7.11,2.66,5.63,5.92,7.41a41.05,41.05,0,0,0,7.71,3s-3-1.48-3.56-3.55a11.46,11.46,0,0,1,0-4.74s.89,3.55,5.63,6.81,6.52,4.15,8.3,6.52,4.74,8,3.55,10.37-4.14,7.41-4.14,7.41,8-9.15,10.07-11c3.52-3.12,23.85-10.34,29.93-4.45,3.16,3.07,3.55,7.7,3,9.48s-6.22,14.82-6.22,14.82,16.88-19,19.85-27.85,8.29-20.45,6.81-31.71-4.44-24.29-10.66-27.26S703.56,267.67,703.56,267.67Z" transform="translate(-521.25 -229.24)"/><path class="cls-3" d="M713.63,262.63s-56,24.89-60.44,25.48-4.45,4.45-15.71,3-26.07-20.44-26.07-20.44,2.37,7.41,4.74,10.07,15.11,10.08,15.11,10.08-2.67,2.37-13.33,1.48-17.49-2.07-20.45-3-13-8-15.11-10.08l-7.11-7.11,2.07-4.15s15.11,5.34,17.48,7.11,11.86,7.71,11.86,7.71-8-9.78-12.74-11.85-15.41-5.63-15.41-5.63a35.24,35.24,0,0,0,4.74-3c2.37-1.77-.3-3.55,3.55-5.63a42,42,0,0,1,5.63-2.66s.89,6.52,3,8.29a57.41,57.41,0,0,0,5.33,3.86s-5-5.93-5-9.78a30.19,30.19,0,0,1,.89-7.11s10.67-6.82,16-8,5.63,3.26,10.67,3.85,6.81,1.18,18.07.59,18.67.59,24.89,2.37,12.45,3.26,12.45,3.26-19.56-8.89-32.6-8.59-18.07,1.18-20.14,0a98.43,98.43,0,0,1-8-6.22s14.81-6.82,20.74-6.82,8.59,1.78,13,2.07,7.11-1.48,11.26-1.18,9.48,2.67,11,3,7.7-1.48,15.11.3,14.52,5,16.29,9.18S713.63,262.63,713.63,262.63Z" transform="translate(-521.25 -229.24)"/><path class="cls-4" d="M705,361.59s-4.15,2.08-3,4.15-.59,6.82.3,8.3,1.78,10.37,2.37,14.22.59,19.26.59,19.26L721,432.41l4.44,7.4,4.45.3s-3.56-24.3-7.41-30.52-10.67-33.18-12.15-37.92S705,361.59,705,361.59Z" transform="translate(-521.25 -229.24)"/><path class="cls-4" d="M710.67,368.7s8,27.26,10.66,30.82,8,19,8.89,22.52,2.67,17.48,2.67,17.48L732,446l7.7,7.4s6.82-8.88,3.56-15.11-12.15-26.07-12.15-26.07,14.82,25.18,16,28.44-6.22,14.52-6.22,14.52l18.67,35,16-48-8.3,35.55v5.63s24-23.7,25.78-27.26,8.89-13.92,8.89-13.92S789.78,465,787.11,470.33s-19.85,17.48-19.85,17.48l3,12.75s26.08-12.45,29.63-16.3,12.74-9.19,12.74-9.19,1.19-16.88,1.19-23.7-3-19-3-19l1.49-7.71-8-8.89s-1.78,11.56-3,13.93a47.09,47.09,0,0,0-2.37,7.41s2.08-12.15,2.37-16.3,1.78-16,1.78-16-13.63-11.55-18.67-12.74S765.19,390,761,388.26s-17.19-2.37-22.82-6.22-11.55-8.6-16.89-11.56a91.2,91.2,0,0,0-12.14-5.33Z" transform="translate(-521.25 -229.24)"/><path class="cls-4" d="M606.07,413.44l15.71-3.85-2.67,25.19L625,412.56l7.4,18.66-14.22,21.93-2.07-7.41s-.89,4.45-6.22,1.48-14.52-7.41-14.52-7.41,3-8.29,4.44-13.62S606.07,413.44,606.07,413.44Z" transform="translate(-521.25 -229.24)"/><path class="cls-4" d="M598.07,444.26a23.37,23.37,0,0,0,7.41,5.63c4.15,1.78,8.59-.3,8.59-.3L596,493.74s-8.59-29.33-9.19-36.74-3-25.19-3-25.19S583,469.15,585,475.37s8.29,20.44,8.29,20.44l-3.85,12.75s-9.18-17.19-13.63-25.49-11.85-14.51-12.44-16-9.48-20.44-9.48-20.44,5.33,19,7.4,22.52a70.75,70.75,0,0,0,8.6,11.26c2.37,2.37,11,17.18,11,17.18s0,1.19-8.89-2.66-9.78-8.3-15.7-8.89-11.26-.89-17.49-4.45-15.7-8.59-16.88-13.33S526.07,454,526.07,454l2.67-23.71s-3.85-13.92-1.18-16.59,5.92-8,9.18-9.18,9.78-3.86,9.78-3.86-3.26,3-2.67,5.34,1.48,8,1.48,8-1.77-6.52.3-9.19,6.52-8.59,6.52-8.59,16.89-7.11,20.74-7.11S585,387.07,585,387.07s2.66-3.85,3.55-3.55,3,7.7,3,7.7a57.83,57.83,0,0,1,1.18,7.11c0,1.78-3,3.56-.89,6.23s1.48,6.81,8.89,8.59,2.67,0,2.67,0L592.15,441.3S600.15,445.44,598.07,444.26Z" transform="translate(-521.25 -229.24)"/><path class="cls-4" d="M662.67,473.3s-2.37,27.85-1.78,36.74-.59,51.55-.59,51.55l8.29-10.66s-1.18-46.82-1.18-50.37,4.15,45,4.15,45l23.7-15.4,19.55,5.92,8.3-7.11s-1.18-3,0-10.67,1.78-11.26,1.78-11.26-2.37,15.41.59,18.37,4.74-1.18,4.74-1.18l10.08-7.7-20.15-18.37L708.3,489.3l-14.82-4.15-10.67-6.52s-8.29-1.19-10.66-1.78S662.67,473.3,662.67,473.3Z" transform="translate(-521.25 -229.24)"/><path class="cls-4" d="M658.52,477.44l-14.08,16s-6.66,15.41-6.66,17.19,4.74,21.93,4.74,21.93l13,26.07Z" transform="translate(-521.25 -229.24)"/></svg>