<svg id="mom" xmlns="http://www.w3.org/2000/svg" viewBox="0 0 297.36 434.5"><defs><style>.cls-1,.cls-2{fill:#333;}.cls-1,.cls-3,.cls-4{stroke:#000;stroke-miterlimit:10;stroke-width:0.75px;}.cls-3{fill:#754c24;}.cls-4{fill:#22b573;}</style></defs><path class="cls-1" d="M640.44,367s5.36,35.15,4.45,35.56c-10,4.44-8.67,1.48-14.45-4S615.78,387.42,612.67,387s.22,20.28,1.11,23.23a9.94,9.94,0,0,0,3.11,4.64s-7.56,0-8.45-4.64,4.89-5.48,6.23-7.17-4.89-4.31-8.45-4.73.89-2.43,1.34-.75a7.07,7.07,0,0,0,1.77,2.95s-6.66,1.27-7.11-2.52,4-5.91,1.78-9.7-6.67-6.32-8.44-3.37-3.56,4.21-2.23,5.48a18.88,18.88,0,0,0,4.45,2.53s-.89,3.79-4.89,1.68-8-5.48-5.78-9.27,8.89-6.32,4.89-8-7.11-4.22-9.78-.84-2.22,5.06-2.22,5.06-6.22-6.75-2.22-9.7,12.44-3.37,10.66-6.74-4.44-5.48-6.66-2.95-1.78,4.63-1.78,4.63-6.22-15.59,0-18.55-1.33-9.27-1.33-9.27-3.56-2.95-2.67-4.64,6.67-5.05,1.78-8-1.78-13.92-4.89-17.71-7.56-4.21-6.67-9.69,8.89-9.28,8.89-9.28,0-4.63-4-2.95-3.11,4.22-3.11,4.22-5.78-2.11-3.11-6.33,7.55-8.43,10.67-6.32,3.55-10.12,3.55-10.12-4.89-5.05-6.67-2.52-8-2.53-3.11-4.64,5.78-5.48,8-4.22a6.31,6.31,0,0,0,7.56-.42c2.67-2.11,7.11-5.48,8-4.21s4.89-3.38-.89-4.22-6.22,1.69-6.22,1.69L596.89,242s-.45-3.37,4.89-5.9,12.44.84,12.44.84,3.56-5.06,8.89-6.74,8.45-5.06,14.67-4.22,8.44,2.53,12.89-1.68,2.66-6.33,8-5.91,9.33,1.27,16.44-.84,14.67,1.69,14.67,1.69l4,3.79s-.45-5.06,4-4.64,8,3.38,9.78,2.53,3.11-5.48,1.77-5.9-3.55-2.95-3.55-2.95,9.33,1.27,10.22,4.64-.44,9.27-.44,9.27-.89-5.48,4.88-4.64,5.78,3,5.78,3,3.11-4.22,7.56-1.69,5.33,3.79,5.33,3.79a34.49,34.49,0,0,0,5.78.85c4.44.42,4.89,3.79,4.89,3.79s-.45-2.11-3.56-.84-5.33,5.9-.44,5.9,10.22.42,8.89-2.95a16.49,16.49,0,0,1-1.34-5.48s7.11,5.9,7.11,8.43-6.66,4.64-4.44,6.74,4.44,2.11,7.11,3.37,2.67,7.17,2.67,7.17-2.22-4.21,2.66,0,4.89,3.79,5.34,8.43,1.33,13.49,3.55,10.54,2.23-9.27,2.23-9.27S784,264.8,784,269s4,8.85-3.11,11-10.67.42-10.67.42-3.11,2.11,0,3.37,1.78,2.53,4.89,2.53,4.45,1.69,4.45,2.95-5.78,4.22-5.78,4.22,4.44-.85-.89-3.8,1.33,7.59,3.55,8.43,4.89,3.8,2.67,6.33,2.67,3.79,5.33,6.74,2.67,4.22,4,9.27-6.22,8-6.22,8,1.78-.42.89-4.21-7.55-5.06-8-2.53-4.89,6.74,2.67,8S788.44,328,788.44,328s2.67,2.53.45,6.75-5.33,9.27-9.78,8.85l-4.44-.42s2.66,3.79,2.66,7.16-7.11,3.37-7.11,3.37a8.2,8.2,0,0,1,8,5.48c2.22,5.91.45,8.44-3.55,10.54s-8.45-1.68-8.45-1.68,3.56-1.69,2.67-4.22-8.89-2.11-8.89-2.11,2.22,5.91,4.44,8.86,4.89,8.85,1.78,11-10.66,1.68-10.66,1.68,8.44,1.27,4.44-4.64-7.56-4.21-8-1.26.89,9.7,2.67,9.7,8.89-2.53,8.89-2.53,2.22-.85,0,4.21-15.12,11.38-20.45,8-10.67-9.69-11.11-4.64a5.86,5.86,0,0,0,4,6.33s4.89,5.05-1.33,3.37-12-4.22-13.78-7.17-7.11,6.23-14.22,3.7S640.44,367,640.44,367Z" transform="translate(-492.79 -211.6)"/><path class="cls-2" d="M685.65,389.68s-.9-.42.33,5.42,10.39,8.78,5.94,11.75-6.6-.44-6.6-.44-2.79,5.06,1.93,5.28,9.57,2,10.7-2.26S700.2,398,700.2,398a16.52,16.52,0,0,0,3.14,16.8c7,8.08,18.85,9.43,21.58,5s7.72-6.71,8.4-1.57S730,424.8,730,424.8s9.09.73,9-3.71.45-9.44-1.35-10.28-5.62-3.49-9.51.18-10.7,2.25-11.11.31,2-6.73,2-6.73-2.71,1.59,1.24,3,13.38,3.6,13.48-5.56-11.61-13.52-11.61-13.52-7.71,1-8.55,2.82-1,5.89-1,5.89-2.85-19.3-7.15-20.43-7-5.22-11.65-3.23S684.63,384.82,685.65,389.68Z" transform="translate(-492.79 -211.6)"/><path class="cls-2" d="M666.84,408.88s-1.07.44,2.6,6.38,14.08-.17,10.87,8.28-6.79,6.49-6.79,6.49,6.13,6.64,10.94,1.88,3.65-5.05,3-11.6-2.54-16.64-2.54-16.64-.19,15,10.19,17.55,22.82-8.4,23.69-16.82,4.92-16.59,7.75-10.92-.52,11.69-.52,11.69,9.4-8.81,7.41-14.2-3.51-12.21-5.66-11.33-7.08,1.65-9.45,10.37-9.76,14.23-11,12.25-.78-10.54-.78-10.54-2,4.87,2.5,2.4,13.16-6,9.42-17.5-15.56-8.22-15.56-8.22-7.29,9.49-7.37,12.63,1.48,8.39,1.48,8.39-11-21-15.73-17.76-9.19,1-13,8.42S663.78,403.93,666.84,408.88Z" transform="translate(-492.79 -211.6)"/><path class="cls-3" d="M764.89,314.78s0,18.22-4.89,24.44-15.56,14.67-15.56,14.67l-6.22-2.22-6.33,6.05a27.4,27.4,0,0,0,5.67,5.95c2.88,1.94-6.66-4.54-6.89-4-1.34,3.11-1.34,14.66-2.67,17.33s-5.78,3.56-7.11,3.11a39.82,39.82,0,0,1-4.89-2.67l-2.61,5.28s-.45,2.5-4.06,3.17c-3.18.59-5.33-2.22-5.33-2.22a9.74,9.74,0,0,1,.17,6.11c-.55,1.57-1.61,2.78-4.11,3.55-3,.93-8.06-3.33-8.06-3.33l-2.22,1.67s-2.22,6.66-10.67,2.66-13.33-5.77-13.78-9.33-1.77-29.33-1.77-29.33L671.11,337l13.78-9.33s-4.45,2.66-6.67-2.67,2.22-11.56,8.89-18.22,14.22-12.89,18.22-8.45a9.72,9.72,0,0,1,1.78,9.78s0-.89,12-4.89,23.56-8.44,23.56-8.44S764.89,312.56,764.89,314.78Z" transform="translate(-492.79 -211.6)"/><path class="cls-3" d="M663.56,346.33s-4.45,8.67-3.78,12.89,3.33,16.45,3.33,16.45L648,383.44s0-2.22.22,6.45,1.34,7.11,1.34,7.11l2.22-13.11,2.89.22s5.55,7.78,4.89,12-3.56,20-10.23,23.78-14.66-2-19.11-6S604.89,380.56,604,372.56s-16-22.45-16-22.45,11.33,4.45,21.11,4.45S663.56,346.33,663.56,346.33Z" transform="translate(-492.79 -211.6)"/><path class="cls-3" d="M680.22,433.89s-12.66,51.33-14.66,54S645.11,514.78,644,516.33s-2.44,1.34-3.56,4.23-1.55,35.77-1.55,35.77,8,9.34,11.33,16,15.56,27.11,15.56,27.11-3.34-86,.22-96.88,11.11-29.56,13.33-41.34S680.22,433.89,680.22,433.89Z" transform="translate(-492.79 -211.6)"/><path class="cls-3" d="M532,579.89s16.89-40.67,18.44-47.78,2-40.89,5.12-47.33,23.11-46.22,23.11-46.22,4.22-61.56-23.34-64-35.77,39.11-36.44,45.33-2,20.89-3.78,29.78-15.55,61.77-15.55,69.11-.89,23.55-1.34,26-6.66,19.33-4.66,26,3.55,22,3.55,27.78v32.22s3.56-22.45,10-36.67S527.78,585.67,532,579.89Z" transform="translate(-492.79 -211.6)"/><path class="cls-4" d="M520.89,391s10.67-11.33,12.89-13.33,13.11-5.34,18.66-5.56,17.34,5.11,19.34,9.33,7.33,10,9.11,23.12.67,33.55.67,33.55-20.89,44.45-23.34,47.56-3.33,30.66-3.33,30.66l23.78,7.11-24-2.44-5.11,20.67L569.78,545l-23.11,2.67s26.66,1.77,42.22,4.22,30.89,3.11,38.89,9.33,20,12.89,20,12.89S640.44,561.67,638,559s.67-41.33.67-41.33l24.89-30,16-58s-4.23-22.89-9.78-29.56-13.34-16.67-13.34-16.67A16.66,16.66,0,0,1,665.11,401c-1.78,12.67-12.44,22.44-20,23.33s-25.55-15.11-27.78-20.89-16.44-29.55-16.44-29.55-9.78-23.22-23.56-22.33-24.89,3.55-33.33,11.77S520.89,391,520.89,391Z" transform="translate(-492.79 -211.6)"/><path class="cls-2" d="M719.23,293.33s-1-.13,2.91-4.8,13.49-2.06,11-7.39-6.09-3.43-6.09-3.43,0-6.29,4.27-3.75,9.52,3.68,8.45,8.3-3.52,11.87-3.52,11.87.79-10.29,10.92-13.68,21.36,2.27,21.64,7.94,6.34,11.28,11.45,9.72a4.63,4.63,0,0,0,3.34-6.22s3.14,4,.88,8a8.72,8.72,0,0,1-8.65,4.19c-2-.28-6.69-.05-8.4-5.7s-8.44-8.3-9.75-6.74-1.43,7.39-1.43,7.39-1.65-3,2.55-2,14.69,4.39,10.35,12.9-17.9,5.79-17.9,5.79-13,0-20.54,1.1c-4.57.67-14.37-5.45-17.56-10S716,297.22,719.23,293.33Z" transform="translate(-492.79 -211.6)"/><path class="cls-2" d="M585.05,364.42s-.92-.37.6,5.4,10.8,8.26,6.5,11.44-6.61-.11-6.61-.11-2.54,5.19,2.18,5.18,9.66,1.57,10.57-2.78S600,372,600,372a16.52,16.52,0,0,0,4,16.63c7.37,7.73,19.28,8.5,21.79,3.94s7.39-7.07,8.31-2-2.95,6.74-2.95,6.74,9.11.28,8.77-4.15,0-9.45-1.86-10.2-5.77-3.21-9.49.64-10.57,2.78-11.07.85,1.7-6.81,1.7-6.81,4.8-2.28,4.63-2.52c-15.41-21,28.16-55,28.16-55s-34.68-10.77-47.72,30.42c-1.34,4.23-7.24-4.88-11.79-2.66S583.79,359.62,585.05,364.42Z" transform="translate(-492.79 -211.6)"/><path class="cls-4" d="M555.58,550.53s-12.9,3.23-21,10.49-21.77,29-23.38,33.87-8.07,36.29-8.07,36.29l39.52-46.78,4.84-13.71,2.42,12.1-7.26,9.68s6.45,17.74,8.87,16.93-.81-8.87,9.68,5.65,27.42,8.87,27.42,8.87-10.49-18.55-15.33-25-8.06-21-8.06-21,16.13,23.39,20.16,29,25,17.75,25,17.75,17.74-.81,33.87,4,30.65,16.13,30.65,16.13-17.75-39.52-21.78-42.74-37.1-30.65-37.1-30.65l-23.38,1.61,7.26-5.64L583,556.18Z" transform="translate(-492.79 -211.6)"/><path class="cls-2" d="M700.22,359s-6.22-1.11-6.66-5.56c-.47-4.66,2-4,3.33-7.11s-2.89-3.77-2.89-8c0-7.77,3.78-8,6.44-13.33s-.22-12-.22-12,4.67-.89,8.22-8.44-4-18.23-4-18.23,11.12-.89,13.34,5.78,8,8.89.44,13.33-12,4.89-12.44,9.34,2.48,3.72,2.66,8.44c.23,5.56-6.44,4.45-8.66,9.78s.66,4.44,1.55,9.33-4.94,8-5.55,10.45C695.11,355.44,700.22,359,700.22,359Z" transform="translate(-492.79 -211.6)"/></svg>